<svg viewBox="0 0 1277.7271728515625 400" xmlns="http://www.w3.org/2000/svg"><g><g><g><g><g><line x1="40" y1="377" x2="35" y2="377" style="visibility: inherit;" fill="rgb(0, 0, 0)" stroke="rgb(204, 204, 204)" stroke-width="1px"></line><line x1="40" y1="323.14285714285717" x2="35" y2="323.14285714285717" style="visibility: inherit;" fill="rgb(0, 0, 0)" stroke="rgb(204, 204, 204)" stroke-width="1px"></line><line x1="40" y1="269.2857142857143" x2="35" y2="269.2857142857143" style="visibility: inherit;" fill="rgb(0, 0, 0)" stroke="rgb(204, 204, 204)" stroke-width="1px"></line><line x1="40" y1="215.42857142857142" x2="35" y2="215.42857142857142" style="visibility: inherit;" fill="rgb(0, 0, 0)" stroke="rgb(204, 204, 204)" stroke-width="1px"></line><line x1="40" y1="161.57142857142858" x2="35" y2="161.57142857142858" style="visibility: inherit;" fill="rgb(0, 0, 0)" stroke="rgb(204, 204, 204)" stroke-width="1px"></line><line x1="40" y1="107.71428571428571" x2="35" y2="107.71428571428571" style="visibility: inherit;" fill="rgb(0, 0, 0)" stroke="rgb(204, 204, 204)" stroke-width="1px"></line><line x1="40" y1="53.857142857142875" x2="35" y2="53.857142857142875" style="visibility: inherit;" fill="rgb(0, 0, 0)" stroke="rgb(204, 204, 204)" stroke-width="1px"></line><line x1="40" y1="0" x2="35" y2="0" style="visibility: inherit;" fill="rgb(0, 0, 0)" stroke="rgb(204, 204, 204)" stroke-width="1px"></line></g><g transform="translate(30, 0)"><text x="0" y="377" dx="0em" dy="0.3em" style="text-anchor: end; visibility: hidden; font-family: Roboto, sans-serif; font-size: 12px; font-weight: 200;" fill="rgb(33, 33, 33)" stroke="none" stroke-width="1px">-50</text><text x="0" y="323.14285714285717" dx="0em" dy="0.3em" style="text-anchor: end; visibility: inherit; font-family: Roboto, sans-serif; font-size: 12px; font-weight: 200;" fill="rgb(33, 33, 33)" stroke="none" stroke-width="1px">0</text><text x="0" y="269.2857142857143" dx="0em" dy="0.3em" style="text-anchor: end; visibility: inherit; font-family: Roboto, sans-serif; font-size: 12px; font-weight: 200;" fill="rgb(33, 33, 33)" stroke="none" stroke-width="1px">50</text><text x="0" y="215.42857142857142" dx="0em" dy="0.3em" style="text-anchor: end; visibility: inherit; font-family: Roboto, sans-serif; font-size: 12px; font-weight: 200;" fill="rgb(33, 33, 33)" stroke="none" stroke-width="1px">100</text><text x="0" y="161.57142857142858" dx="0em" dy="0.3em" style="text-anchor: end; visibility: inherit; font-family: Roboto, sans-serif; font-size: 12px; font-weight: 200;" fill="rgb(33, 33, 33)" stroke="none" stroke-width="1px">150</text><text x="0" y="107.71428571428571" dx="0em" dy="0.3em" style="text-anchor: end; visibility: inherit; font-family: Roboto, sans-serif; font-size: 12px; font-weight: 200;" fill="rgb(33, 33, 33)" stroke="none" stroke-width="1px">200</text><text x="0" y="53.857142857142875" dx="0em" dy="0.3em" style="text-anchor: end; visibility: inherit; font-family: Roboto, sans-serif; font-size: 12px; font-weight: 200;" fill="rgb(33, 33, 33)" stroke="none" stroke-width="1px">250</text><text x="0" y="0" dx="0em" dy="0.3em" style="text-anchor: end; visibility: hidden; font-family: Roboto, sans-serif; font-size: 12px; font-weight: 200;" fill="rgb(33, 33, 33)" stroke="none" stroke-width="1px">300</text></g><line x1="40" y1="0" x2="40" y2="377" fill="rgb(0, 0, 0)" stroke="rgb(204, 204, 204)" stroke-width="1px"></line></g></g><g transform="translate(40, 0)" clip-path="url(#clip_0)"><clipPath id="clip_0"><rect width="1237" height="376"></rect></clipPath><g><g><g><line x1="0" y1="0" x2="0" y2="377" fill="rgb(0, 0, 0)" stroke="rgb(66, 66, 66)" stroke-width="1px" opacity="0.25"></line><line x1="137.52555555555554" y1="0" x2="137.52555555555554" y2="377" fill="rgb(0, 0, 0)" stroke="rgb(66, 66, 66)" stroke-width="1px" opacity="0.25"></line><line x1="275.0511111111111" y1="0" x2="275.0511111111111" y2="377" fill="rgb(0, 0, 0)" stroke="rgb(66, 66, 66)" stroke-width="1px" opacity="0.25"></line><line x1="412.57666666666665" y1="0" x2="412.57666666666665" y2="377" fill="rgb(0, 0, 0)" stroke="rgb(66, 66, 66)" stroke-width="1px" opacity="0.25"></line><line x1="550.1022222222222" y1="0" x2="550.1022222222222" y2="377" fill="rgb(0, 0, 0)" stroke="rgb(66, 66, 66)" stroke-width="1px" opacity="0.25"></line><line x1="687.6277777777779" y1="0" x2="687.6277777777779" y2="377" fill="rgb(0, 0, 0)" stroke="rgb(66, 66, 66)" stroke-width="1px" opacity="0.25"></line><line x1="825.1533333333333" y1="0" x2="825.1533333333333" y2="377" fill="rgb(0, 0, 0)" stroke="rgb(66, 66, 66)" stroke-width="1px" opacity="0.25"></line><line x1="962.6788888888889" y1="0" x2="962.6788888888889" y2="377" fill="rgb(0, 0, 0)" stroke="rgb(66, 66, 66)" stroke-width="1px" opacity="0.25"></line><line x1="1100.2044444444443" y1="0" x2="1100.2044444444443" y2="377" fill="rgb(0, 0, 0)" stroke="rgb(66, 66, 66)" stroke-width="1px" opacity="0.25"></line><line x1="1237.73" y1="0" x2="1237.73" y2="377" fill="rgb(0, 0, 0)" stroke="rgb(66, 66, 66)" stroke-width="1px" opacity="0.25"></line></g><g><line x1="0" y1="377" x2="1237.73" y2="377" fill="rgb(0, 0, 0)" stroke="rgb(66, 66, 66)" stroke-width="1px" opacity="0.25"></line><line x1="0" y1="323.14285714285717" x2="1237.73" y2="323.14285714285717" fill="rgb(0, 0, 0)" stroke="rgb(66, 66, 66)" stroke-width="1px" opacity="0.25"></line><line x1="0" y1="269.2857142857143" x2="1237.73" y2="269.2857142857143" fill="rgb(0, 0, 0)" stroke="rgb(66, 66, 66)" stroke-width="1px" opacity="0.25"></line><line x1="0" y1="215.42857142857142" x2="1237.73" y2="215.42857142857142" fill="rgb(0, 0, 0)" stroke="rgb(66, 66, 66)" stroke-width="1px" opacity="0.25"></line><line x1="0" y1="161.57142857142858" x2="1237.73" y2="161.57142857142858" fill="rgb(0, 0, 0)" stroke="rgb(66, 66, 66)" stroke-width="1px" opacity="0.25"></line><line x1="0" y1="107.71428571428571" x2="1237.73" y2="107.71428571428571" fill="rgb(0, 0, 0)" stroke="rgb(66, 66, 66)" stroke-width="1px" opacity="0.25"></line><line x1="0" y1="53.857142857142875" x2="1237.73" y2="53.857142857142875" fill="rgb(0, 0, 0)" stroke="rgb(66, 66, 66)" stroke-width="1px" opacity="0.25"></line><line x1="0" y1="0" x2="1237.73" y2="0" fill="rgb(0, 0, 0)" stroke="rgb(66, 66, 66)" stroke-width="1px" opacity="0.25"></line></g></g></g><g><g><line x1="0" y1="323.14285714285717" x2="1237.73" y2="323.14285714285717" fill="rgb(0, 0, 0)" stroke="rgb(153, 153, 153)" stroke-width="1.5px"></line></g></g><g><g><line x1="137.52555555555554" y1="0" x2="137.52555555555554" y2="377" fill="rgb(0, 0, 0)" stroke="rgb(153, 153, 153)" stroke-width="1.5px"></line></g></g><g><g><g><g><g><path stroke="rgb(255, 112, 67)" stroke-width="2px" d="M138.0756577777778,322.2736465350219L140.00101555555554,322.05150212552314L141.23874555555554,320.83883617355315L143.02657777777776,320.44378403036393L143.98925666666668,320.751928757187L144.12678222222223,320.52859017392757L146.05214,319.03707854660354L146.18966555555556,307.860614851785L146.7397677777778,309.49505239666246L147.28987,309.282870463894L148.11502333333334,309.11382651073046L148.80265111111112,307.7792671157806L149.76533,304.2879269901815L151.14058555555556,304.7534941977411L151.69068777777778,306.10057029998933L152.24079,305.3980983290627L154.16614777777778,304.55815952063466L154.71625,305.4028950561843L154.85377555555556,305.5431701596724L155.12882666666667,305.8955689807698L155.40387777777778,305.6908637586596L157.32923555555556,298.163638846931L157.74181222222222,291.6830787158174L159.11706777777778,290.3471745229997L159.52964444444444,292.44436429957864L159.80469555555558,294.3044730911383L160.07974666666667,295.76534875877013L161.1799511111111,295.90448608640247L161.8675788888889,289.7762948100482L163.79293666666666,287.9370397723224L165.44324333333333,287.6119127538926L165.71829444444444,290.15570140877264L166.81849888888888,291.83314224203303L169.0189077777778,286.44866522871513L171.0817911111111,282.32774632256235L171.21931666666669,282.5812577378495L173.0071488888889,275.7258839663413L173.14467444444446,271.8308204391434L174.7949811111111,275.9041544092611L175.20755777777777,271.5411167839927L176.30776222222224,272.0739661457369L176.7203388888889,266.99172343888375L177.40796666666668,270.074528643395L178.09559444444446,268.61896455208455L179.88342666666668,265.6832284658822L180.98363111111112,261.35023984189934L181.2586822222222,256.93707377192L181.39620777777776,251.88175254192532L181.80878444444446,250.02217321632554L184.9718722222222,252.04766709412647L185.1093977777778,247.76424265807373L186.75970444444442,253.65553109911642L187.58485777777778,250.00930907772994L187.72238333333334,252.07779914094525L187.8599088888889,250.2470083039001L189.51021555555556,247.80504753242255L190.61042,254.24518794681202L191.16052222222223,260.40940037913265L191.43557333333334,265.734685778283L192.81082888888886,269.2946737133853L193.08588,273.7220045365072L194.59866111111114,276.320280015036L195.56134,272.5971787953239L197.48669777777778,273.9447761373259L197.62422333333336,263.515019857849L197.89927444444444,266.16077368315416L198.86195333333336,268.3636405964461L200.92483666666666,266.5501913344681L201.4749388888889,268.4053301052189L202.16256666666666,272.74734572214595L202.71266888888889,274.42027871809273L202.85019444444444,272.55868955495936L203.53782222222222,273.3749956687467L203.6753477777778,274.53904052184316L204.5005011111111,274.933382170548L207.66358888888888,275.00514481286154L207.93864000000002,275.70761742161596L208.07616555555555,278.39906382568205L208.2136911111111,280.58984197960456L208.62626777777777,282.91965706294945L208.90131888888888,285.88152305543525L210.82667666666669,288.82634669086485L210.96420222222224,287.9104362474743L211.23925333333332,287.2383845621805L211.51430444444446,287.91602038072097L211.78935555555555,290.9905377111319L212.33945777777777,291.298954514559L212.6145088888889,290.69438129796987L213.43966222222224,292.22638084873836L213.98976444444446,293.5933191067961L214.81491777777777,291.6088712160736L215.0899688888889,293.01087968499513L215.64007111111113,292.63865301988204L217.84047999999999,291.6970102905114L218.66563333333335,293.77701477351906L219.21573555555557,292.32918223154303L219.49078666666668,292.13797780866605L221.96624666666668,291.18156020226667L223.20397666666668,293.1491159704384L223.89160444444443,295.0811589022062L224.02913,296.612314359679L225.12933444444442,288.92559744063175L225.95448777777779,268.7517467136679L226.09201333333334,271.7358802334924L228.01737111111112,262.0097386489446L229.25510111111112,262.865017392199L230.35530555555556,261.624356731196L230.49283111111112,263.11269659532735L232.69324,248.14192418189958L232.96829111111114,250.0991937460264L236.6814811111111,246.0357819839853L236.95653222222222,248.42042623058518L237.23158333333336,244.750258628094L237.64416,245.713174979566L238.05673666666667,248.43265065445365L239.8445688888889,247.076831794509L242.59508000000002,231.0753886117899L244.1078611111111,217.1086141460219L244.24538666666666,222.42593490489526L245.07054000000002,230.47000309036176L245.89569333333333,231.98984561225996L248.09610222222224,219.8149037901302L248.23362777777777,208.26983152768898L248.50867888888888,198.0809010760529L250.15898555555555,192.27480237344452L251.94681777777777,189.07682162659836L253.04702222222224,179.10112772256568L255.38495666666668,189.71570246547492L256.0725844444445,180.05244170625278L256.62268666666665,166.34232868747932L257.3103144444445,154.30118340905702L259.37319777777776,143.30156437449867L260.8859788888889,149.61756231313583L261.43608111111115,143.84869410175145L265.4243222222222,132.6847465902568L265.69937333333337,123.5801461479972L267.0746288888889,132.57621164525037L268.03730777777776,124.18750847724893L269.9626655555556,115.88189277420872L274.9135855555556,110.00548885275725L275.32616222222225,103.91428889379027L275.60121333333336,97.88739374106852L277.1139944444445,97.59082778759323L278.0766733333333,96.01133268878836L278.6267755555556,91.82808928874415L278.9018266666667,86.56484591211503L280.1395566666667,86.10047676017616L282.75254222222225,81.30529169452251L284.6779,84.23686035691806L284.8154255555555,79.34785435962205L285.0904766666667,74.95557257650758L285.6405788888889,98.6480070999219L286.8783088888889,106.80153280436208L288.5286155555556,101.0142744640025L289.07871777777774,95.28757575042677L289.3537688888889,95.97541204953815L289.7663455555556,92.0175556178804L290.0413966666667,90.58532725440988L290.3164477777778,86.06444265695126L291.69170333333335,105.46018522685257L292.2418055555556,99.15540328461003L293.20448444444446,94.14598911832648L293.4795355555556,89.45849826743934L294.16716333333335,85.23788284046853L295.12984222222224,80.8786972777975L295.81747,77.24864010616496L295.95499555555557,74.16159131525079L297.60530222222224,71.7214159767105L298.9805577777778,81.60058931130666L299.2556088888889,89.18967197725256L299.39313444444446,87.47818357469237L300.35581333333334,82.24727865117131L301.59354333333334,77.99337765617881L301.7310688888889,73.68291370998338L303.38137555555556,69.54099518820819L304.48158,66.2376071967409L305.03168222222223,63.778403281221536L305.9943611111111,60.815143262854946L308.6073466666667,58.48984577948664L308.8823977777778,56.45627028223162L309.57002555555556,55.681465301963875L309.7075511111111,54.02252422574426L309.9826022222223,52.596894015679695L310.3951788888889,50.9467573945199L310.9452811111111,49.70184833955765L311.77043444444445,48.74378068142791L312.32053666666667,47.80538543364378L313.00816444444445,47.03219108303265L313.8333177777778,46.798884728808645L314.93352222222217,46.16148039421686L316.0337266666667,45.92009113469877L317.1339311111111,72.58057502135773L318.37166111111117,69.05787722035952L319.33434,65.89795173778099L319.7469166666667,63.04902886633291L319.8844422222222,60.548707101452884L321.1221722222222,60.41457523918287L322.4974277777778,58.253938383374255L324.56031111111116,56.041331914256595L325.1104133333333,54.380567836126396L326.62319444444444,53.163903202620105L326.76072,51.93248052430227L327.3108222222222,50.635525893359016L332.39926777777777,49.1767268085097L335.2873044444445,47.698215983557915L335.42483000000004,73.75308060805558L337.90029000000004,70.42239663931807L338.0378155555556,66.79108196207642L338.4503922222222,64.56756099321859L340.2382244444445,63.23579163586129L340.51327555555554,67.92130245221182L342.02605666666665,66.22593029817068L342.43863333333337,87.49038644579458L342.98873555555554,84.09522904369173L344.08894000000004,86.55713563099577L345.0516188888889,98.99515768048406L345.1891444444445,96.21541057578749L345.6017211111111,89.7270114329793L346.0142977777778,87.33337907607427L347.6646044444445,109.44068766536472L348.4897577777778,104.57845582123471L349.03986,97.95142633972505L350.41511555555553,92.1206348842384L350.82769222222225,86.3209854754268L352.75305,81.90819500697141L353.16562666666664,77.49307218750438L353.8532544444445,95.73098156910288L354.2658311111111,89.1624604644751L355.5035611111111,83.49358580804575L357.01634222222225,80.94448767289587L357.70396999999997,75.85272254281581L357.9790211111111,71.44989331646886L361.2796344444444,68.91721733925887L362.3798388888889,66.987060237166L362.65488999999997,68.4672930824069L364.0301455555555,71.34128662664631L364.9928244444444,96.0263784767249L366.09302888888885,90.33563829046074L367.19323333333335,88.20242391817709L368.15591222222224,83.6973634721132L368.43096333333335,79.73877497817108L369.2561166666667,92.40597455478432L370.4938466666667,86.90411602574285L371.5940511111111,81.94699978097503L371.86910222222224,80.01955335162405L372.28167888888885,77.89256453866668L372.69425555555557,73.50698812976977L372.8317811111111,70.65274275567506L373.79446,67.00967177947906L374.4820877777778,63.36554780220153L375.4447666666667,60.7834019313619L376.6824966666667,59.55908794846202L377.50765,59.144301407032614L378.74538,58.57285222335927L380.2581611111111,56.40872590168837L381.6334166666667,55.400915340674956L381.90846777777784,54.32688070009053L382.8711466666667,54.49130376202235L383.55877444444445,52.61228331013387L383.9713511111111,52.628417266369325L385.07155555555556,78.06606062020799L387.6845411111111,74.47865416058299L391.5352566666667,70.26070850072895L392.0853588888889,67.9622882592619L393.3230888888889,67.35915750811202L394.0107166666667,64.4858876138837L394.2857677777778,63.39765419481473L397.17380444444444,60.01477543304625L398.68658555555555,65.6500599311088L399.0991622222222,65.01032580602215L399.9243155555556,62.51570057405176L400.06184111111116,60.25110734944432L402.12472444444444,58.3008068736371L402.26225,56.067856723033366L403.77503111111116,79.47607670738725L404.3251333333333,82.08891001565298L405.01276111111116,79.25200768334633L405.2878122222222,79.92221494375066L406.5255422222222,76.75925405205355L407.07564444444444,73.95058739667344L407.21317000000005,69.69284857713662L407.48822111111116,66.10406915155146L407.62574666666666,64.58421906448625L407.90079777777777,61.445545658316306L409.4135788888889,67.73160031925694L409.68863000000005,92.29911593288905L410.7888344444445,86.82888917149148L410.92636000000005,81.83509948878681L411.33893666666665,76.63969782499431L416.1523311111111,73.08855452826481L422.20345555555554,71.59575441688631L423.44118555555553,68.70748036679908L424.8164411111111,65.61058161687971L426.3292222222222,62.076597961678786L426.7417988888889,58.95227602997788L427.5669522222222,55.71476891212234L428.25458,53.48718485189494L428.39210555555553,52.12321777923332L428.9422077777778,50.07096977537518L429.07973333333337,48.965563768122294L430.04241222222225,49.61232712397606L431.6927188888889,47.61117292022796L434.44322999999997,55.24904712252031L435.8184855555555,52.7335746263676L438.2939455555555,51.41661008190877L439.2566244444444,50.45964973115375L441.3195077777778,48.51276492335645L442.14466111111113,48.485252870194856L443.5199166666667,47.53104212349347L445.0326977777778,45.54334967174679L445.4452744444444,50.44732204710146L446.13290222222224,50.83676701001128L447.9207344444444,75.83766434029506L451.2213477777778,71.85564035534482L454.5219611111111,70.40716211344174L456.03474222222223,70.44306047816482L456.4473188888889,66.1818577890258L457.1349466666667,64.0077212393364L458.2351511111111,60.32365145566505L459.6104066666667,57.54273051524637L460.98566222222223,54.18747366419606L461.9483411111111,52.39367623150972L466.0741077777778,50.22312371543189L466.62421,47.47492459898077L466.76173555555556,46.85274661836559L467.3118377777778,45.71290831429967L471.8501811111111,43.45945022038367L472.5378088888889,42.92918383952834L473.2254366666667,43.1719711004555L475.0132688888889,41.91600557523136L476.11347333333333,41.795674984923636L476.52605,44.87485315293514L479.27656111111116,46.71340929795126L480.3767655555556,73.75032912178777L481.0643933333333,69.23420849337018L481.33944444444444,71.24622476910295L481.75202111111116,68.70307533209218L482.0270722222222,78.29413579727863L482.1645977777778,77.42907633916766L483.6773788888889,75.10360920033324L483.95243000000005,73.53726364372068L484.22748111111116,68.62308768566837L485.19016000000005,72.654728872633L485.46521111111116,67.93908796430384L486.5654155555556,63.52911707768097L490.2786055555556,60.12184658782588L490.4161311111111,57.438864356498605L491.9289122222222,81.96062354364715L492.06643777777776,89.63250295738365L493.4416933333333,85.00871699967546L493.9917955555556,80.00939781610022L494.9544744444445,75.88490346906048L495.9171533333334,70.67481213512875L497.70498555555554,65.9925574056421L498.80519000000004,63.26070406986306L498.94271555555554,59.99319605824511L499.9053944444445,59.18991557159611L500.3179711111111,57.00062648548838L500.45549666666665,55.601670081707944L500.5930222222222,53.612207977275986L501.0055988888889,50.893336815081334L503.6185844444445,48.485917257108404L504.7187888888889,48.96983189213276L504.8563144444445,46.724313686178405L505.2688911111111,44.43254619695511L506.23157,44.60160493175178L506.64414666666664,43.00370635787072L506.9191977777778,41.702160211132224L507.3317744444445,40.63690511879965L507.88187666666664,39.38694132636726L509.11960666666664,41.34020678845712L509.94476,61.86162468426612L510.6323877777778,58.32977389622458L511.18249,55.13224306596314L512.8327966666667,52.180319706283655L512.9703222222222,57.629124841542605L513.5204244444444,55.11052995818356L514.2080522222222,52.53399107892493L514.3455777777777,65.39581703817109L514.4831033333334,63.04220484293383L514.89568,59.1848388769858L516.13341,55.913796465291696L516.2709355555555,55.3551784633984L516.4084611111111,52.86095874763889L517.096088888889,50.98811847067077L517.7837166666667,48.34718634074931L518.1962933333334,46.031061622341284L518.8839211111111,44.84505705748439L519.571548888889,43.12619978923594L520.5342277777778,41.168462343794445L522.1845344444445,40.50157634937038L524.2474177777779,39.31439723877771L525.8977244444444,38.98592279461532L527.27298,37.5336590848385L527.8230822222223,48.192187167007575L528.6482355555555,47.97842803631411L529.6109144444445,45.96292596580215L530.98617,43.74904274073421L531.1236955555555,49.82056199396961L533.7366811111111,47.53463039348458L533.8742066666667,45.55366956012106L535.1119366666667,43.54335831176798L535.3869877777778,41.58474821475692L538.8251266666667,40.66147564635045L539.2377033333333,39.29523293662613L539.65028,60.86437787329269L541.0255355555556,57.75888232054772L543.5009955555556,56.107841788339464L543.9135722222222,53.05264543909541L544.8762511111112,53.269988112157115L545.2888277777778,53.95941464622598L545.5638788888889,50.93795716423451L546.3890322222222,48.45477336884901L548.1768644444445,48.991751079571564L549.5521200000001,46.848885533207564L549.9646966666667,44.70467416494543L550.3772733333333,43.06235103556029L551.4774777777777,41.31673972002041L552.7152077777778,39.99868070337546L554.7780911111112,38.84264991331137L556.5659233333333,39.9360107110776L561.5168433333333,38.600133412291235L561.6543688888889,37.24920746468657L563.3046755555556,36.331222125583984L564.2673544444444,35.59690211552275L564.40488,34.65125235284048L564.5424055555555,33.67578070816751L565.3675588888889,33.055495466591836L565.9176611111111,34.38088771855153L566.4677633333333,33.791925298189085L566.6052888888889,33.47783665020614L566.7428144444444,33.09194601671455L567.4304422222223,32.24471709584665L567.7054933333334,31.774595789094032L570.0434277777778,31.44057245460427L573.8941433333333,31.32649558198149L574.5817711111112,30.904062759623198L575.8195011111111,30.367222698086056L576.2320777777778,29.783301453668088L576.5071288888889,29.30408868762607L577.4698077777778,28.998032148662574L578.1574355555555,28.798945721951988L579.8077422222223,28.509772349882326L579.9452677777778,28.68468623689462L580.3578444444445,29.573989306843565L580.6328955555556,29.150288879925927L581.5955744444445,31.817248456288805L583.2458811111111,33.99586744785299L583.5209322222222,33.920910664353954L586.5464944444445,34.392737592826485L586.9590711111111,33.39996004936414L591.0848377777778,36.17532855074054L592.1850422222223,38.84909660334643L596.8609111111111,37.7403543537261L597.5485388888889,36.70637666633059L599.06132,36.81174796314619L600.29905,35.50088571914747L601.2617288888889,34.691617520767856L601.53678,33.69358610490764L601.9493566666666,32.98243776924946L602.2244077777779,32.124464290873654L602.9120355555556,31.52210054698441L603.0495611111111,30.644342326828383L604.1497655555555,30.727783146461334L605.6625466666667,30.56865522244024L606.2126488888889,31.263036343262623L607.5879044444445,32.262017603607156L608.1380066666667,36.07150832633103L608.6881088888889,35.55228426022976L609.7883133333333,34.45146757737082L610.4759411111112,34.05110007291218L612.5388244444445,35.794462059203546L613.5015033333333,35.16397712211695L614.4641822222222,34.91977886407658L616.38954,34.55475642200488L616.5270655555556,37.22912695377205L616.6645911111111,38.312819622513125L616.8021166666667,37.2789336737942L617.62727,36.31830932322565L617.9023211111112,36.549604175640795L618.865,35.910098086341186L619.2775766666666,35.13140479730807L620.7903577777778,34.807860247404285L622.4406644444446,34.347906375984095L623.6783944444445,33.59836963591639L624.9161244444446,33.20174057550555L625.7412777777778,33.46177794373622L626.8414822222222,34.20237574053168L627.9416866666667,33.459986049430505L628.3542633333334,33.01500191853875L629.1794166666666,32.1398968421285L629.3169422222222,31.719184335998747L630.8297233333334,31.23247377942174L630.9672488888889,42.199254604081446L632.6175555555556,40.267817233098505L634.4053877777777,39.13353947707382L634.5429133333334,37.667759939941256L634.680438888889,36.59657273466085L634.8179644444444,36.87332561744477L636.7433222222223,37.96136035655125L640.0439355555555,36.825337872444706L640.4565122222223,36.43201797854565L640.7315633333334,37.30940408875467L641.0066144444444,42.39728155097298L641.4191911111111,42.08728071695548L641.9692933333334,40.637623437321906L642.38187,39.60453506122366L642.5193955555555,38.41574881758733L644.9948555555555,39.48191594022314L646.3701111111112,40.080303979641144L648.0204177777778,39.89135774043824L648.7080455555555,39.3010238375579L648.8455711111112,37.796724877002404L650.7709288888889,37.04023816287919L652.5587611111112,37.3445775668061L652.6962866666667,36.08267678208418L652.9713377777778,35.825688226364555L653.1088633333333,34.58243056967396L653.52144,36.25871036165323L653.6589655555555,38.227092255175435L653.7964911111112,37.45002023668916L654.75917,36.80575182944048L655.0342211111112,36.09950836385137L657.3721555555555,36.22097261884455L657.6472066666666,35.07184322630999L657.7847322222223,34.360963573740364L658.3348344444444,33.274983340110744L658.7474111111112,32.258983349431176L661.9104988888889,32.32843278408907L663.2857544444444,31.56073060152277L665.4861633333333,30.853047172369365L666.7238933333333,31.05939872257104L666.9989444444444,30.360410301206795L667.2739955555555,29.813694143784225L668.3742000000001,29.479072610613933L669.61193,28.99943912710555L670.0245066666666,28.628203780243236L674.1502733333333,28.180549513756315L674.9754266666666,31.727523610755355L675.3880033333334,31.30601855541365L675.9381055555556,30.503538308061426L676.7632588888889,30.13073980126477L678.1385144444445,29.654201160493745L678.4135655555556,29.02439413386962L678.8261422222222,29.044605407564145L681.1640766666667,28.740218091556663L681.7141788888889,28.897149660260943L682.951908888889,28.359983330535023L684.1896388888889,29.767979792054657L685.0147922222222,29.158641093680675L685.7024200000001,29.05109629409221L686.5275733333333,28.72130743058697L688.7279822222222,28.90209828351038L689.2780844444444,29.071923506777612L689.5531355555555,28.820801477319186L690.7908655555556,28.429137545756408L691.4784933333333,28.61766367155183L692.3036466666667,28.73920302077501L693.1288000000001,28.559717707536784L694.0914788888889,28.879673775789797L699.1799244444444,28.708369292323557L699.7300266666667,28.652491774712285L700.280128888889,28.68674825607201L702.6180633333333,28.767678986407866L703.4432166666667,29.173948371528272L704.26837,29.614045425418958L704.6809466666667,30.524543435890443L707.706508888889,30.052186129480496L708.6691877777779,37.072492410156876L709.0817644444445,36.24803023491961L710.5945455555556,35.08311539502142L711.9698011111111,34.06590380494727L712.1073266666667,35.48376981483338L712.5199033333333,35.46525453640531L714.0326844444445,34.5109788211855L716.0955677777779,34.03005108764395L718.0209255555556,32.86619022239239L718.8460788888889,32.31718986121619L719.12113,31.777190653972895L720.0838088888888,37.70037051871656L721.4590644444445,36.36009465371712L721.8716411111111,35.175173593409546L722.2842177777778,34.277104092606564L722.4217433333333,33.500773199947446L722.9718455555555,32.575733390415856L724.3471011111111,31.870575753104152L726.1349333333334,31.2125718974505L726.2724588888889,30.71735664757711L728.6103933333334,30.198602079359603L730.1231744444444,29.532983404975553L731.3609044444445,28.93719405408455L732.0485322222222,28.47341991757954L732.7361599999999,28.197713763921467L733.5613133333334,28.240842019574497L734.7990433333333,27.845437522555663L737.1369777777777,27.42319546707742L739.3373866666667,27.190124385771448L739.7499633333333,27.094001482280785L741.9503722222222,26.91702441231726L743.0505766666668,32.837813469760206L743.6006788888889,32.1779110987886L744.0132555555556,31.377794218122908L744.4258322222222,34.31404302507038L744.5633577777777,33.19257894298745L745.6635622222223,32.24985294391753L745.9386133333334,33.82181363777211L747.4513944444445,33.22856380126892L748.5515988888889,32.55210357418333L750.06438,44.97737208988163L750.6144822222223,42.93957565935324L751.7146866666666,41.51303759676612L754.8777744444445,39.638072512452226L755.7029277777777,38.07589805626836L756.25303,36.626994050376425L758.3159133333334,35.39482503212729L759.1410666666666,35.22938536687491L759.5536433333334,34.19999901524604L759.8286944444445,33.95676189622697L760.7913733333334,32.963500850298495L761.20395,32.04117454282169L761.7540522222223,31.28902317043128L762.3041544444445,31.333882441348557L762.44168,30.763031123483238L764.91714,32.05096781826388L765.1921911111111,31.46115403901843L765.7422933333334,30.998971086637223L766.5674466666666,30.21329410562418L767.6676511111111,30.572894173298323L769.0429066666667,30.30526932418839L770.9682644444445,29.629131848382258L771.3808411111112,30.188431100765015L771.7934177777778,29.838583500244912L776.1942355555556,29.12931833346538L776.8818633333334,29.438867369957013L777.0193888888889,28.882034788583557L777.5694911111111,28.272530179702848L778.1195933333333,28.7796568963168L778.2571188888888,28.263368339427895L778.6696955555556,27.71057279140864L779.3573233333334,27.373980652474224L780.8701044444446,27.744893151540392L781.9703088888889,27.352990715571615L782.5204111111111,27.43906762929621L782.7954622222222,27.05543108644193L783.6206155555556,27.162230794831757L784.72082,26.904410093975827L784.8583455555555,26.620851504709385L785.683498888889,41.98164469809307L786.0960755555556,40.54079566669053L788.0214333333334,39.03278425885245L788.9841122222223,37.65365179418374L792.0096744444444,37.12077694505276L792.9723533333334,40.145572358457656L793.7975066666667,62.46346771028455L794.3476088888889,58.556583315441884L794.4851344444444,57.272174896704605L796.2729666666667,62.644439881224955L798.1983244444444,58.73546025729053L798.6109011111112,55.326046163411355L799.0234777777778,52.21969860099047L799.2985288888889,49.34530716234791L799.57358,46.779751116523286L801.7739888888889,44.787250143403334L802.04904,42.6189551391774L802.3240911111112,40.86746189053591L802.4616166666667,39.18274953239747L802.5991422222223,38.35863712449814L803.5618211111112,45.39361449829974L803.6993466666667,44.69321149224772L806.1748066666667,42.375727108857184L808.9253177777778,40.62530315808589L810.71315,39.04389291586824L812.5009822222223,37.71918647689021L812.7760333333333,36.32321789372406L815.3890188888889,35.791728336145724L815.9391211111111,35.082884159408955L816.9018000000001,33.79879647065834L817.4519022222222,32.967243274485334L818.13953,43.822742222357675L822.4028222222222,42.85453881834178L823.7780777777778,41.51467027237539L823.9156033333333,39.92875122748994L828.3164211111111,38.51495740356907L831.6170344444445,37.01837378130648L833.2673411111111,35.60839385120875L833.5423922222221,34.4802248064896L834.2300200000001,33.26234298571793L835.6052755555555,32.28216843184481L836.0178522222221,31.350923887418656L836.1553777777779,30.720027569756606L837.2555822222222,30.174613148090618L837.5306333333333,29.470813140480214L838.218261111111,29.294429371075044L843.3067066666667,29.745998091682434L843.856808888889,29.54462038072849L844.4069111111111,29.44346269882199L845.3695900000001,29.471472551637884L845.9196922222222,28.929843537266514L846.0572177777779,28.561222098578924L846.332268888889,28.035154358238323L846.4697944444445,28.34764806024933L848.120101111111,28.357864472834923L849.3578311111111,30.27416716739713L850.8706122222222,36.80947996900288L852.3833933333333,47.87325449320334L852.6584444444444,45.627704146770796L853.3460722222222,43.55725979933697L853.6211233333333,41.63981866175819L854.3087511111111,39.83159700589207L855.1339044444444,38.403528770844204L856.0965833333333,51.550479404153215L857.8844155555556,49.49122116274738L859.947298888889,46.913828372993294L860.0848244444445,44.547395016023216L860.6349266666667,43.8359899173227L861.185028888889,41.72072860695202L861.5976055555556,40.29442003720273L864.4856422222222,38.65275208133401L865.4483211111111,37.13519993053878L865.7233722222222,41.53863740034066L865.9984233333333,39.752295397541516L868.8864599999999,38.11567028022043L869.0239855555556,36.75102680130553L869.4365622222222,35.52944175161588L869.7116133333334,34.23336300265405L870.2617155555556,33.11500328232726L870.3992411111111,33.02612845981438L871.0868688888888,32.56342800222581L871.3619199999999,31.700910946632117L871.636971111111,32.06567149294271L874.9375844444445,31.434543448001087L875.7627377777778,31.379712751708304L876.0377888888888,30.6110645879353L877.6880955555556,30.66460308763789L879.2008766666668,30.029508109161483L880.4386066666667,29.331737683289926L880.5761322222222,33.56999552942797L881.1262344444444,32.48493311899356L882.50149,32.51798471153058L883.4641688888888,31.83844006815375L884.0142711111112,31.07423273649183L884.97695,30.34741417301284L886.3522055555557,29.442751682887945L886.6272566666668,57.76826383405493L887.3148844444445,54.25254005074711L887.5899355555556,51.14957948526503L888.0025122222222,48.403836171225095L888.2775633333333,47.009310394504425L889.7903444444445,44.737009752305624L893.3660088888888,42.47207619825246L894.4662133333334,40.57673348146853L894.87879,38.97091773830212L895.1538411111111,37.55140903331958L895.2913666666667,36.067879841762156L896.2540455555556,34.90563877618251L896.8041477777778,34.85860870332156L897.0791988888889,33.72449439758202L897.4917755555556,32.90551913123342L900.1047611111111,32.08550257490416L901.06744,31.34561398210401L901.7550677777778,30.577999064780904L903.1303233333334,29.88212940383849L904.78063,29.224730271350822L908.2187688888889,28.819316047229176L913.5822655555556,37.0782722250118L914.9575211111111,35.785114749999444L916.8828788888889,34.60720718299338L917.5705066666666,33.37109151491725L919.63339,33.65856742027546L922.2463755555555,32.82854256126964L923.2090544444445,31.951029038262075L923.6216311111111,30.97629729794031L924.58431,30.328510132320446L925.5469888888889,29.62492137843553L925.9595655555555,29.008176703273325L926.9222444444446,28.487043332959914L928.2975,29.635433769823006L928.5725511111111,30.939838861730212L928.9851277777777,30.19911692972853L929.1226533333333,40.855957774074334L929.2601788888888,39.20606311622608L929.3977044444446,37.710372689438806L930.3603833333334,36.35036954786659L931.3230622222222,35.15255238939686L932.5607922222223,33.86616895919043L933.6609966666666,34.16925285149686L936.4115077777777,33.18262127623838L939.5745955555556,32.24055575157211L941.9125300000001,31.44141934842944L944.2504644444444,30.667612976156235L944.6630411111112,33.2105412014201L946.0382966666666,32.18131494469888L946.1758222222223,31.353616825996237L946.4508733333334,30.690762807668396L948.2387055555555,30.119331249976348L951.81437,30.603980426527258L955.52756,30.090584101578226L956.2151877777778,29.553622458301L956.6277644444444,29.134072372417883L957.7279688888889,28.8063799614875L958.5531222222223,28.250612553368885L960.0659033333333,27.70747160355654L961.3036333333333,53.755671642341156L962.2663122222223,50.798580779027766L963.0914655555555,47.91445316987504L963.6415677777778,45.95717096498292L963.9166188888889,43.78579449697231L964.0541444444444,41.79048565971927L968.1799111111112,39.9334314000392L968.7300133333333,38.36676278570494L968.8675388888889,37.49062850804124L969.9677433333333,36.164026019262764L973.1308311111112,34.98081313204073L973.4058822222222,33.72971269739412L973.5434077777778,32.865470518754016L975.056188888889,31.887723036144827L975.4687655555556,31.039435421425374L977.3941233333333,30.329952049483737L977.9442255555556,29.62112068905263L978.2192766666667,35.622090921695936L979.8695833333333,34.38430864837396L980.9697877777778,33.33698831820458L981.6574155555555,32.281422961551485L981.9324666666666,33.21726551995829L982.2075177777779,58.243521329892225L985.7831822222222,63.21826102429555L989.7714233333334,59.23920748743518L990.8716277777778,63.11390916213617L991.696781111111,60.83085765370712L993.0720366666667,56.956296058258275L993.6221388888889,54.93722509849836L994.172241111111,51.84288037882705L994.7223433333334,49.17379388774958L995.1349200000001,46.64163769582177L995.4099711111111,44.30520107293324L996.0975988888889,43.23061802095523L997.1978033333334,42.99478215356951L999.6732633333334,41.75283744651331L1001.0485188888889,40.535817687632125L1001.3235700000001,39.18165755844761L1002.286248888889,37.61847623863804L1003.3864533333333,36.37857874033225L1003.5239788888889,35.1406081692427L1003.9365555555556,34.293488374918844L1005.8619133333333,33.305063984622855L1007.7872711111111,32.28459313477945L1008.3373733333333,31.248422613502907L1008.474898888889,30.581795361569483L1008.6124244444444,29.85906126870216L1010.4002566666667,29.16243215424826L1011.2254099999999,28.70456173283852L1011.9130377777778,28.232109308857154L1012.0505633333333,31.970678245961082L1012.3256144444445,46.10748122737783L1012.7381911111111,46.702507204807446L1013.0132422222222,44.47389424939367L1013.425818888889,42.47861225504864L1014.9386,40.58452249648012L1018.5142644444445,38.922367950166375L1020.9897244444445,37.274834018570516L1023.0526077777779,35.94244521248631L1023.4651844444445,34.77107523783365L1023.60271,33.70793400520547L1024.4278633333333,32.71122355146224L1025.8031188888888,31.77706202918429L1027.7284766666667,30.93237204417883L1029.6538344444446,31.533500135171092L1030.2039366666668,30.84220784347315L1030.6165133333334,30.142365450936676L1030.7540388888888,29.80964199352436L1034.467228888889,29.22308865668587L1035.2923822222222,28.688024603028985L1035.7049588888888,28.939524336504007L1036.9426888888888,28.416328224351965L1037.7678422222223,27.783245869271695L1038.4554699999999,27.298619550689946L1038.5929955555557,26.903075536469167L1038.730521111111,26.52444383382669L1039.0055722222223,26.249461617366414L1040.2433022222222,26.05151541203326L1040.6558788888888,26.13284717335506L1040.93093,25.88071035292245L1043.1313388888889,25.770498509524728L1043.4063899999999,25.548179981814442L1043.8189666666667,26.976134514325018L1044.5065944444445,26.786165384879098L1045.0566966666668,26.421062230529017L1047.2571055555557,27.72145730665302L1047.394631111111,27.337670741724356L1047.9447333333333,31.025513286692554L1049.1824633333333,30.279126491365904L1051.9329744444444,29.783212874386127L1053.583281111111,29.168495006660134L1054.8210111111111,28.742400301613532L1055.2335877777778,28.217507195280348L1058.534201111111,27.81914053511334L1060.0469822222221,27.482670800100905L1061.0096611111112,27.00797459062652L1061.4222377777778,26.7889151948312L1061.6972888888888,26.615751571902205L1061.97234,26.271729741999934L1062.247391111111,25.97587680128206L1063.0725444444445,25.75947237485086L1063.6226466666667,25.642091874949518L1065.8230555555556,25.780801885626992L1067.3358366666666,25.491022417279144L1067.6108877777779,25.3279092851355L1069.39872,25.210215437397604L1069.8112966666665,25.09632285222371L1070.63645,25.235506083881916L1072.9743844444445,25.10868051211483L1073.5244866666667,24.9942482257611L1074.34964,24.88588791734512L1075.58737,24.707495746006803L1075.7248955555556,28.523749092374324L1076.9626255555554,28.02790030618377L1077.3752022222222,27.573467758475537L1077.7877788888889,27.085668345909234L1078.4754066666667,29.73402175144803L1078.7504577777777,29.74052963664084L1079.5756111111111,29.06947108390027L1080.8133411111112,29.097629784313238L1081.77602,28.562508573111263L1082.3261222222222,28.11197647451943L1083.01375,27.704282027053527L1085.3516844444446,27.158965100157324L1088.3772466666667,26.97205327903669L1088.6522977777777,26.733726970734L1089.0648744444445,26.387400974274463L1090.5776555555556,26.567522170094772L1091.5403344444446,26.249397385772262L1092.5030133333335,26.08080882604549L1094.5658966666667,25.92157777951796L1096.62878,25.74224892874248L1096.7663055555556,26.754349614830264L1097.5914588888888,27.79991924842257L1098.9667144444445,27.443097716297974L1099.6543422222223,27.18251803848791L1099.9293933333333,26.920199941740098L1100.34197,26.646840330518142L1101.8547511111112,26.43142031811364L1102.6799044444444,26.25626936645019L1104.0551600000001,27.96458759407693L1104.1926855555555,29.27263218288356L1104.4677366666667,28.77685263333128L1106.255568888889,28.37868658735307L1107.2182477777778,27.93106393517468L1107.4932988888888,27.572991363853028L1107.6308244444444,27.342428485838248L1111.206488888889,26.922192098261647L1112.1691677777778,26.537533191169853L1115.3322555555555,26.28757234380227L1116.2949344444444,26.183381829567136L1116.7075111111112,26.14319138656576L1117.5326644444444,26.037953067175405L1122.7586355555557,25.875479956328405L1124.5464677777777,25.56413914889313L1124.6839933333333,53.737102256338304L1124.9590444444443,50.99710953384344L1125.7841977777778,49.36793984894406L1126.1967744444444,46.724104517090936L1128.6722344444445,45.45161686462847L1129.772438888889,43.388936143916176L1131.1476944444444,43.250787908291336L1134.4483077777777,41.30812177615361L1134.9984100000001,39.54242183347126L1136.0986144444444,38.27852538812634L1136.6487166666666,36.757986613613404L1137.8864466666666,35.79053757034636L1138.0239722222223,34.792396070915004L1140.4994322222221,33.95516751990609L1141.7371622222222,33.198562014078966L1142.5623155555556,32.7081518227157L1145.4503522222221,31.76841999702895L1146.13798,31.14540718608168L1146.6880822222222,31.386908712520924L1146.9631333333334,31.05335844883025L1148.7509655555555,30.509859361062176L1149.0260166666667,30.817621018426937L1149.4385933333333,39.192263300652314L1150.1262211111111,37.655101188290764L1150.6763233333334,38.90653645171616L1151.6390022222222,38.45459760669797L1152.051578888889,38.1378654722837L1153.1517833333332,36.75681172186055L1154.251987777778,35.435894744708L1157.552601111111,34.33828868611331L1158.51528,33.223295144650415L1160.0280611111111,32.40497433205477L1160.1655866666667,32.40237463880468L1160.5781633333334,31.474670979681484L1160.99074,30.79887660248621L1163.4661999999998,30.318845213163925L1164.0163022222223,50.50721028421987L1164.5664044444445,47.833635853523866L1164.8414555555555,45.59548576042879L1166.4917622222222,43.58778091694729L1168.9672222222223,41.711858529423885L1169.7923755555555,40.215059159810195L1170.2049522222221,38.595271505547906" style="fill: none;" fill="none"></path></g></g></g></g><g opacity="0.2"><g><g><g><path stroke="rgb(255, 112, 67)" stroke-width="2px" d="M138.0756577777778,322.2736465350219L140.00101555555554,321.85157215697427L141.23874555555554,318.76517739568436L143.02657777777776,319.4802518531254L143.98925666666668,321.7056675011771L144.12678222222223,319.7054557248524L146.05214,312.7473277773176L146.18966555555556,255.38345304216656L146.7397677777778,317.8728443717956L147.28987,308.1130657223293L148.11502333333334,308.1229087693351L148.80265111111112,299.5374224744524L149.76533,281.74038402012417L151.14058555555556,307.87853062765936L151.69068777777778,315.4507449831281L152.24079,300.37754533495223L154.16614777777778,298.3994914572579L154.71625,311.7376121548244L154.85377555555556,306.6161552265712L155.12882666666667,308.6387236731393L155.40387777777778,304.07250314440046L157.32923555555556,237.8312067086356L157.74181222222222,239.1017178780692L159.11706777777778,279.389640045166L159.52964444444444,309.8135039683751L159.80469555555558,309.84362069266183L160.07974666666667,308.0637344087873L161.1799511111111,297.08390484401156L161.8675788888889,237.50903028215683L163.79293666666666,272.16342594691685L165.44324333333333,284.8098121861049L165.71829444444444,312.1763427080427L166.81849888888888,306.4117276109968L169.0189077777778,239.48594802856445L171.0817911111111,246.27100625174387L171.21931666666669,284.8057484109061L173.0071488888889,215.41748541695733L173.14467444444446,237.48602002825058L174.7949811111111,311.89518822261266L175.20755777777777,232.91867364065988L176.30776222222224,276.7987265450614L176.7203388888889,221.8600113568987L177.40796666666668,297.48759509495324L178.09559444444446,255.66004451206754L179.88342666666668,239.51783366612028L180.98363111111112,222.69370572771345L181.2586822222222,217.53057455880304L181.39620777777776,206.70551565987722L181.80878444444446,233.39244655064175L184.9718722222222,270.172722593035L185.1093977777778,209.4121049935477L186.75970444444442,306.43119182041715L187.58485777777778,217.3303031703404L187.72238333333334,270.6242659541539L187.8599088888889,233.82560636247905L189.51021555555556,225.894284123012L190.61042,312.0476999800546L191.16052222222223,315.75055729184834L191.43557333333334,313.55592556272234L192.81082888888886,301.2705917794364L193.08588,313.4963783127921L194.59866111111114,299.66693938664025L195.56134,239.1380412074498L197.48669777777778,286.0572637939453L197.62422333333336,169.75788521902902L197.89927444444444,289.94729103088383L198.86195333333336,288.17050907679965L200.92483666666666,250.24317598615377L201.4749388888889,285.08866359165734L202.16256666666666,311.7982801273891L202.71266888888889,289.4672416632516L202.85019444444444,255.81383518763948L203.53782222222222,280.71802200317387L203.6753477777778,285.0106588309152L204.5005011111111,278.48099799019946L207.66358888888888,275.65076963152205L207.93864000000002,282.02776565551756L208.07616555555555,302.6148220498221L208.2136911111111,300.30152726309643L208.62626777777777,303.88290276118687L208.90131888888888,312.532493158068L210.82667666666669,315.324548121861L210.96420222222224,279.668701008388L211.23925333333332,281.1908827209473L211.51430444444446,294.01386854989187L211.78935555555555,318.65762397629874L212.33945777777777,294.0743834631784L212.6145088888889,285.2537909262521L213.43966222222224,306.0130800982884L213.98976444444446,305.89472213200156L214.81491777777777,273.75020072937014L215.0899688888889,305.6280908148629L215.64007111111113,289.28881974356517L217.84047999999999,283.22269635881696L218.66563333333335,312.49611949375696L219.21573555555557,279.29927549089706L219.49078666666668,290.41720766884936L221.96624666666668,282.5741153717041L223.20397666666668,310.85653720583235L223.89160444444443,312.4690321104867L224.02913,310.39234745025635L225.12933444444442,219.74679894583565L225.95448777777779,87.19099648611885L226.09201333333334,298.59256186894004L228.01737111111112,174.47598985944475L229.25510111111112,270.56240535191125L230.35530555555556,250.4585683986119L230.49283111111112,276.50758519853866L232.69324,113.4065130179269L232.96829111111114,267.71443855285645L236.6814811111111,209.46541482107978L236.95653222222222,269.88204556056434L237.23158333333336,211.71899799891878L237.64416,254.37936363220217L238.05673666666667,272.9077830069406L239.8445688888889,234.87452878679548L242.59508000000002,87.06310878208707L244.1078611111111,91.40820077078685L244.24538666666666,270.2816309465681L245.07054000000002,302.8663569968087L245.89569333333333,245.6683841378348L248.09610222222224,110.24074584960938L248.23362777777777,104.36445295061384L248.50867888888888,106.38074288504463L250.15898555555555,140.02002476283482L251.94681777777777,160.29504978724887L253.04702222222224,89.32003666469029L255.38495666666668,285.2467276000977L256.0725844444445,93.08321576799663L256.62268666666665,42.95146589006695L257.3103144444445,45.9309979248047L259.37319777777776,44.30509338378908L260.8859788888889,206.46149191720144L261.43608111111115,91.92892281668527L265.4243222222222,32.20929321289064L265.69937333333337,41.638796648298L267.0746288888889,213.5407526724679L268.03730777777776,48.68922062465123L269.9626655555556,41.13138767787388L274.9135855555556,57.11787663051059L275.32616222222225,49.093510785784034L275.60121333333336,43.64535653250557L277.1139944444445,94.92173505510604L278.0766733333333,81.7958808680943L278.6267755555556,54.178908386230475L278.9018266666667,39.19566650390624L280.1395566666667,81.92115526471818L282.75254222222225,38.14863420758927L284.6779,110.62097385951452L284.8154255555555,35.34680707659039L285.0904766666667,35.42504193987163L285.6405788888889,311.8798915399824L286.8783088888889,180.18325600760323L288.5286155555556,48.928954598563074L289.07871777777774,43.74729195731027L289.3537688888889,102.16593824114118L289.7663455555556,56.39685032435826L290.0413966666667,77.69527282714841L290.3164477777778,45.37648367745535L291.69170333333335,280.02185909816194L292.2418055555556,42.412368512834824L293.20448444444446,49.06126355852401L293.4795355555556,47.27108224051338L294.16716333333335,47.25234531947545L295.12984222222224,41.6460284423828L295.81747,44.57812648228237L295.95499555555557,46.3781529017857L297.60530222222224,49.75983843122209L298.9805577777778,170.51314749581474L299.2556088888889,157.4914147077288L299.39313444444446,72.07478820800783L300.35581333333334,35.169135044642836L301.59354333333334,39.70826921735491L301.7310688888889,34.888738664899556L303.38137555555556,32.263728899274554L304.48158,36.50711556570871L305.03168222222223,41.64556823730471L305.9943611111111,34.14580330984932L308.6073466666667,37.56216857910156L308.8823977777778,38.15409092494421L309.57002555555556,48.70822052001954L309.7075511111111,39.09205461774552L309.9826022222223,39.76622218540735L310.3951788888889,36.09552786690847L310.9452811111111,38.49766688755581L311.77043444444445,40.12117178780692L312.32053666666667,39.3598282296317L313.00816444444445,40.07344194684712L313.8333177777778,44.69912754603793L314.93352222222217,40.42484139578684L316.0337266666667,43.74758780343193L317.1339311111111,312.52492956433974L318.37166111111117,37.35359706333707L319.33434,37.458622436523434L319.7469166666667,37.408723057338186L319.8844422222222,38.045811244419625L321.1221722222222,59.20738848005022L322.4974277777778,38.808206699916305L324.56031111111116,36.1278737095424L325.1104133333333,39.433691144670746L326.62319444444444,42.213921508789056L326.76072,40.849676426478794L327.3108222222222,38.962934221540166L332.39926777777777,36.04753505161832L335.2873044444445,34.39161856515067L335.42483000000004,308.2468621308463L337.90029000000004,40.44624093191966L338.0378155555556,34.1092498779297L338.4503922222222,44.55587227957588L340.2382244444445,51.2498674229213L340.51327555555554,110.09089978899273L342.02605666666665,50.96758091517856L342.43863333333337,278.87049173627577L342.98873555555554,53.53881243024552L344.08894000000004,108.71429491315567L345.0516188888889,210.93735610961917L345.1891444444445,71.19768663678852L345.6017211111111,31.33141915457589L346.0142977777778,65.79068786621094L347.6646044444445,308.4064649500166L348.4897577777778,60.81836922781807L349.03986,38.30816101074218L350.41511555555553,39.64351178850448L350.82769222222225,34.124140799386154L352.75305,42.193080793108244L353.16562666666664,37.75696681431361L353.8532544444445,259.8721659960065L354.2658311111111,30.045770525251132L355.5035611111111,32.47371390206472L357.01634222222225,58.00260445731028L357.70396999999997,30.026836373465414L357.9790211111111,31.82443028041296L361.2796344444444,46.123133544921856L362.3798388888889,49.61564631870814L362.65488999999997,81.78938868931361L364.0301455555555,97.2072285243443L364.9928244444444,318.1922051239014L366.09302888888885,39.118976614815836L367.19323333333335,69.0034945678711L368.15591222222224,43.15181945800781L368.43096333333335,44.111478533063604L369.2561166666667,206.41077074323383L370.4938466666667,37.38738926478797L371.5940511111111,37.33295357840401L371.86910222222224,62.67253548758369L372.28167888888885,58.74966522216796L372.69425555555557,34.03680044991629L372.8317811111111,44.96453438895088L373.79446,34.22203299386159L374.4820877777778,30.568432006835923L375.4447666666667,37.54408909388952L376.6824966666667,48.540262102399566L377.50765,55.4112225341797L378.74538,53.4298095703125L380.2581611111111,36.93158900669644L381.6334166666667,46.330620291573645L381.90846777777784,44.66056893484934L382.8711466666667,55.97111131940568L383.55877444444445,35.70109924316408L383.9713511111111,52.773622872488836L385.07155555555556,307.00485080446515L387.6845411111111,42.19199602399555L391.5352566666667,32.299197562081474L392.0853588888889,47.276506086077L393.3230888888889,61.930980747767855L394.0107166666667,38.62645856584822L394.2857677777778,53.60355342320035L397.17380444444444,29.56886657714845L398.68658555555555,116.36762041364399L399.0991622222222,59.252718680245515L399.9243155555556,40.06407348632811L400.06184111111116,39.869768327985476L402.12472444444444,40.74810259137836L402.26225,35.97130536760604L403.77503111111116,290.1500565665109L404.3251333333333,105.60440979003909L405.01276111111116,53.71988669259209L405.2878122222222,85.9540802873884L406.5255422222222,48.29260602678572L407.07564444444444,48.67258749825614L407.21317000000005,31.373199201311387L407.48822111111116,33.80505432128904L407.62574666666666,50.90556828090122L407.90079777777777,33.19748500279018L409.4135788888889,124.30609226771764L409.68863000000005,313.4067564555577L410.7888344444445,37.5968483189174L410.92636000000005,36.89099234444756L411.33893666666665,29.88108285086494L416.1523311111111,41.1282648577009L422.20345555555554,58.160553414481036L423.44118555555553,42.71301391601563L424.8164411111111,37.73849286760603L426.3292222222222,30.270745064871633L426.7417988888889,30.833378644670738L427.5669522222222,26.577204851423012L428.25458,33.43892830984933L428.39210555555553,39.84751412527903L428.9422077777778,31.600737740652907L429.07973333333337,39.016909702845986L430.04241222222225,55.43319732666017L431.6927188888889,29.60078508649553L434.44322999999997,123.98991494315013L435.8184855555555,30.09432216099329L438.2939455555555,39.56392918178012L439.2566244444444,41.84700657435827L441.3195077777778,30.99080165318081L442.14466111111113,48.23764439174107L443.5199166666667,38.94314540318082L445.0326977777778,27.654117606026773L445.4452744444444,94.58307342529298L446.13290222222224,54.34177167619976L447.9207344444444,300.84574031284876L451.2213477777778,36.01742449079242L454.5219611111111,57.37085793631418L456.03474222222223,70.76614576067242L456.4473188888889,27.83103358677457L457.1349466666667,44.44049229213169L458.2351511111111,27.167023402622778L459.6104066666667,32.514442051478795L460.98566222222223,23.99016200474332L461.9483411111111,36.24949933733261L466.0741077777778,30.688151070731035L466.62421,22.741132550920774L466.76173555555556,41.25314479282925L467.3118377777778,35.45436357770645L471.8501811111111,23.178327375139524L472.5378088888889,38.15678641183034L473.2254366666667,45.357056448800215L475.0132688888889,30.6123158482143L476.11347333333333,40.71269967215403L476.52605,72.58745666503906L479.27656111111116,63.26041460309708L480.3767655555556,317.08260753631595L481.0643933333333,28.589122837611608L481.33944444444444,89.35437125069757L481.75202111111116,45.814730398995515L482.0270722222222,164.61367998395647L482.1645977777778,69.6435412161691L483.6773788888889,54.17440495082308L483.95243000000005,59.44015363420757L484.22748111111116,24.395504063197546L485.19016000000005,108.93949955531528L485.46521111111116,25.498319789341515L486.5654155555556,23.839379098074758L490.2786055555556,29.456412179129458L490.4161311111111,33.29202427455356L491.9289122222222,302.65645622798377L492.06643777777776,158.67941768101284L493.4416933333333,43.394643380301325L493.9917955555556,35.015525163922995L494.9544744444445,38.76445434570312L495.9171533333334,23.783990129743295L497.70498555555554,23.852264840262286L498.80519000000004,38.67402404785155L498.94271555555554,30.585623953683054L499.9053944444445,51.96039119175504L500.3179711111111,37.297024710518954L500.45549666666665,43.01106244768414L500.5930222222222,35.70704903738839L501.0055988888889,26.423496355329256L503.6185844444445,26.819141235351577L504.7187888888889,53.32506360735212L504.8563144444445,26.514649832589303L505.2688911111111,23.806638793945325L506.23157,46.123133544921856L506.64414666666664,28.62261919294084L506.9191977777778,29.988244890485507L507.3317744444445,31.049609287806927L507.88187666666664,28.137267194475466L509.11960666666664,58.91959594726562L509.94476,246.55438574654715L510.6323877777778,26.543116803850452L511.18249,26.354465593610506L512.8327966666667,25.61300946916855L512.9703222222222,106.66837105887275L513.5204244444444,32.44317600795201L514.2080522222222,29.345141165597077L514.3455777777777,181.1522506713867L514.4831033333334,41.85969508579801L514.89568,24.468545183454232L516.13341,26.474414760044642L516.2709355555555,50.327616446358796L516.4084611111111,30.412981305803584L517.096088888889,34.13255597795761L517.7837166666667,24.57879717145647L518.1962933333334,25.185939156668518L518.8839211111111,34.17101597377233L519.571548888889,27.656484375L520.5342277777778,23.548825334821434L522.1845344444445,34.499602399553595L524.2474177777779,28.62978524344308L525.8977244444444,36.02965279715402L527.27298,24.463285696847084L527.8230822222223,144.11893990652902L528.6482355555555,46.05459586007256L529.6109144444445,27.82340733119419L530.98617,23.82409371512276L531.1236955555555,104.46423527308873L533.7366811111111,26.961245989118293L533.8742066666667,27.72502205984934L535.1119366666667,25.450557076590393L535.3869877777778,23.95725734165737L538.8251266666667,32.35202253069196L539.2377033333333,26.999048549107126L539.65028,254.9866823032924L541.0255355555556,29.809422345842613L543.5009955555556,41.24847699846542L543.9135722222222,25.55587829589842L544.8762511111112,55.2260721697126L545.2888277777778,60.16425345284597L545.5638788888889,23.744839826311377L546.3890322222222,26.10611921037945L548.1768644444445,53.824550476074236L549.5521200000001,27.563095615931914L549.9646966666667,25.40677185058593L550.3772733333333,28.28144287109375L551.4774777777777,25.606237880161842L552.7152077777778,28.13614955357145L554.7780911111112,28.438372802734367L556.5659233333333,49.77625789097379L561.5168433333333,26.57723772321429L561.6543688888889,25.090873936244403L563.3046755555556,28.069354073660737L564.2673544444444,28.98802202497211L564.40488,26.140404488699758L564.5424055555555,24.89653590611049L565.3675588888889,27.472928292410735L565.9176611111111,46.30941798618861L566.4677633333333,28.491263514927446L566.6052888888889,30.651038818359364L566.7428144444444,29.618930315290168L567.4304422222223,24.619656808035735L567.7054933333334,27.543504028320317L570.0434277777778,28.434362444196427L573.8941433333333,30.29980372837611L574.5817711111112,27.102167358398436L575.8195011111111,25.535662144252214L576.2320777777778,24.52801025390623L576.5071288888889,24.99117379324779L577.4698077777778,26.243523297991068L578.1574355555555,27.00716788155692L579.8077422222223,25.90721200125559L579.9452677777778,30.258911220005565L580.3578444444445,37.57771693638394L580.6328955555556,25.33698503766742L581.5955744444445,55.81988464355471L583.2458811111111,53.6034383719308L583.5209322222222,33.24629961286272L586.5464944444445,38.639179949079235L586.9590711111111,24.46496215820311L591.0848377777778,61.1536450631278L592.1850422222223,62.91300907679965L596.8609111111111,27.761674107142877L597.5485388888889,27.400577479771204L599.06132,37.7600896344866L600.29905,23.703125523158477L601.2617288888889,27.408203735351545L601.53678,24.711303362165197L601.9493566666666,26.5821027483259L602.2244077777779,24.402702985491068L602.9120355555556,26.100826851981022L603.0495611111111,22.744518345424108L604.1497655555555,31.47875052315848L605.6625466666667,29.136503906249995L606.2126488888889,37.51246643066406L607.5879044444445,41.25284894670758L608.1380066666667,70.3569248308454L608.6881088888889,30.87926766531809L609.7883133333333,24.544117431640622L610.4759411111112,30.447792532784582L612.5388244444445,51.48471993582589L613.5015033333333,29.48961268833707L614.4641822222222,32.72199454171318L616.38954,31.269554443359386L616.5270655555556,61.29846173967633L616.6645911111111,48.06605364118302L616.8021166666667,27.97396013532368L617.62727,27.672690168108268L617.9023211111112,38.631257847377235L618.865,30.154543282645086L619.2775766666666,28.123165196010046L620.7903577777778,31.895959298270093L622.4406644444446,30.20832153320312L623.6783944444445,26.852538975306935L624.9161244444446,29.632079031808043L625.7412777777778,35.802114257812505L626.8414822222222,40.867755911690836L627.9416866666667,26.7784788295201L628.3542633333334,29.01014474051341L629.1794166666666,24.263951154436363L629.3169422222222,27.932771780831473L630.8297233333334,26.8520787702288L630.9672488888889,140.9002820260184L632.6175555555556,22.88488089425224L634.4053877777777,28.925039672851547L634.5429133333334,24.475744105747754L634.680438888889,26.95588788713727L634.8179644444444,39.36410156249998L636.7433222222223,47.75367300851006L640.0439355555555,26.60113551548549L640.4565122222223,32.892138933454234L640.7315633333334,45.20587908063616L641.0066144444444,88.18817871093749L641.4191911111111,39.297273210798L641.9692933333334,27.590707920619433L642.38187,30.306739676339287L642.5193955555555,27.71667262486048L644.9948555555555,49.077420043945324L646.3701111111112,45.465796334402896L648.0204177777778,38.19084158761162L648.7080455555555,33.98801871163503L648.8455711111112,24.258034232003332L650.7709288888889,30.2318577357701L652.5587611111112,40.08363220214843L652.6962866666667,24.725569719587046L652.9713377777778,33.512791224888375L653.1088633333333,23.39311165945871L653.52144,51.345228489467075L653.6589655555555,55.942529296875016L653.7964911111112,30.456372070312508L654.75917,31.00733616420202L655.0342211111112,29.7433171735491L657.3721555555555,37.314150913783486L657.6472066666666,24.7296786934989L657.7847322222223,27.96304670061384L658.3348344444444,23.501161237444187L658.7474111111112,23.11498343331474L661.9104988888889,32.95347769601005L663.2857544444444,24.65141095842634L665.4861633333333,24.483896309988825L666.7238933333333,32.916562674386164L666.9989444444444,24.069514508928577L667.2739955555555,24.89324872698103L668.3742000000001,26.467478812081467L669.61193,24.682737775530132L670.0245066666666,25.287085658482134L674.1502733333333,24.151661115373884L674.9754266666666,63.650290483747206L675.3880033333334,27.51247305733815L675.9381055555556,23.281216081891724L676.7632588888889,26.77555324009486L678.1385144444445,25.365353393554695L678.4135655555556,23.35613089425223L678.8261422222222,29.22650687081475L681.1640766666667,26.000732247488827L681.7141788888889,30.30953377859933L682.951908888889,23.525486363002244L684.1896388888889,42.43994794573102L685.0147922222222,23.674592808314735L685.7024200000001,28.08319309779577L686.5275733333333,25.753207659040168L688.7279822222222,30.52921595982145L689.2780844444444,30.600350516183042L689.5531355555555,26.56070321219308L690.7908655555556,24.904162161690827L691.4784933333333,30.314398803710944L692.3036466666667,29.83305716378347L693.1288000000001,26.944349888392868L694.0914788888889,31.759278390066957L699.1799244444444,27.16662894112724L699.7300266666667,28.149594116210945L700.280128888889,28.99505658830916L702.6180633333333,29.49605555943079L703.4432166666667,32.8303728376116L704.26837,33.574918910435265L704.6809466666667,38.719025530133905L707.706508888889,25.800970371791294L708.6691877777779,100.25524893624443L709.0817644444445,28.82787065778459L710.5945455555556,24.59888183593752L711.9698011111111,24.910999494280134L712.1073266666667,48.24456390380861L712.5199033333333,35.29861703055245L714.0326844444445,25.922497384207585L716.0955677777779,29.70170148577008L718.0209255555556,22.391442435128354L718.8460788888889,27.376186610630594L719.12113,26.917197788783486L720.0838088888888,91.00898930140904L721.4590644444445,24.297611868722107L721.8716411111111,24.510884050641735L722.2842177777778,26.194478585379454L722.4217433333333,26.51379516601563L722.9718455555555,24.250375104631715L724.3471011111111,25.52415701729909L726.1349333333334,25.290537196568064L726.2724588888889,26.260419398716536L728.6103933333334,25.52981096540178L730.1231744444444,23.54241533551899L731.3609044444445,23.575089896065865L732.0485322222222,24.299452689034606L732.7361599999999,25.716358380998884L733.5613133333334,28.628996320452007L734.7990433333333,24.286797049386145L737.1369777777777,23.62301696777342L739.3373866666667,25.092484654017877L739.7499633333333,26.228895350864953L741.9503722222222,25.324230782645085L743.0505766666668,86.12491498674665L743.6006788888889,26.23878976004465L744.0132555555556,24.1767422921317L744.4258322222222,60.74028228759765L744.5633577777777,23.09940220424108L745.6635622222223,23.765318952287966L745.9386133333334,47.96945988246371L747.4513944444445,27.88931527273995L748.5515988888889,26.46396153041294L750.06438,156.8047887311663L750.6144822222223,24.59940778459821L751.7146866666666,28.674195033482153L754.8777744444445,22.763386753627223L755.7029277777777,24.01632795061383L756.25303,23.586857997349338L758.3159133333334,24.305303867885044L759.1410666666666,33.74042837960381L759.5536433333334,24.93552185058594L759.8286944444445,31.76762782505582L760.7913733333334,24.02415143694196L761.20395,23.74023777553015L761.7540522222223,24.519660818917412L762.3041544444445,31.737615879603794L762.44168,25.625369262695305L764.91714,43.64239807128905L765.1921911111111,26.152830025809152L765.7422933333334,26.839324515206464L766.5674466666666,23.142201276506675L767.6676511111111,33.809294782366095L769.0429066666667,27.896645682198667L770.9682644444445,23.543894566127225L771.3808411111112,35.222124372209834L771.7934177777778,26.689955095563626L776.1942355555556,22.745931832449788L776.8818633333334,32.2248086983817L777.0193888888889,23.870541556222076L777.5694911111111,22.786988699776803L778.1195933333333,33.343797345842624L778.2571188888888,23.616771327427443L778.6696955555556,22.73541285923549L779.3573233333334,24.344651402064752L780.8701044444446,31.083105643136157L781.9703088888889,23.825868791852663L782.5204111111111,28.213759852818086L782.7954622222222,23.602702200753342L783.6206155555556,28.12342817034039L784.72082,24.58402378627234L784.8583455555555,24.068824201311376L785.683498888889,180.22878343854632L786.0960755555556,27.57315438406808L788.0214333333334,25.460681588309154L788.9841122222223,25.241459612165173L792.0096744444444,32.3249033028739L792.9723533333334,67.36873107910158L793.7975066666667,263.3245258767264L794.3476088888889,23.394623761858266L794.4851344444444,45.7124991280692L796.2729666666667,110.99482474190849L798.1983244444444,23.554643641880595L798.6109011111112,24.641319318498898L799.0234777777778,24.262570539202002L799.2985288888889,23.475784214564747L799.57358,23.689746704101577L801.7739888888889,26.854741385323653L802.04904,23.10430010114397L802.3240911111112,25.10402265276228L802.4616166666667,24.02033830915177L802.5991422222223,30.941625453404004L803.5618211111112,108.70841086251396L803.6993466666667,38.389584437779014L806.1748066666667,21.51836765834262L808.9253177777778,24.87148760114395L810.71315,24.8112007359096L812.5009822222223,25.79682852608816L812.7760333333333,23.75950064522881L815.3890188888889,31.008322317940845L815.9391211111111,28.703286568777905L816.9018000000001,22.242007271902924L817.4519022222222,25.48326450892859L818.13953,141.52223275320873L822.4028222222222,34.14070818219868L823.7780777777778,29.455853358677448L823.9156033333333,25.6554798235212L828.3164211111111,25.790812988281253L831.6170344444445,23.5491211809431L833.2673411111111,22.918574480329262L833.5423922222221,24.326703404017863L834.2300200000001,22.301406598772324L835.6052755555555,23.460597446986625L836.0178522222221,22.96972298758372L836.1553777777779,25.041960710797984L837.2555822222222,25.265883353097106L837.5306333333333,23.136613071986627L838.218261111111,27.706975446428576L843.3067066666667,33.81011657714845L843.856808888889,27.732220982142863L844.4069111111111,28.533043561662943L845.3695900000001,29.723561226981033L845.9196922222222,24.055182407924086L846.0572177777779,25.243629150390614L846.332268888889,23.300544695172977L846.4697944444445,31.160091378348227L848.120101111111,28.449812186104896L849.3578311111111,47.520891418457026L850.8706122222222,95.62729518345422L852.3833933333333,147.44722521100726L852.6584444444444,25.417751028878364L853.3460722222222,24.923260672433013L853.6211233333333,24.382848423549124L854.3087511111111,23.55760210309711L855.1339044444444,25.55091465541293L856.0965833333333,169.87303510393414L857.8844155555556,30.957896990094866L859.947298888889,23.717293265206457L860.0848244444445,23.249494803292396L860.6349266666667,37.43334402901787L861.185028888889,22.683376813616082L861.5976055555556,27.457642909458695L864.4856422222222,23.87774047851564L865.4483211111111,23.477230573381707L865.7233722222222,81.16957462855747L865.9984233333333,23.67521737234934L868.8864599999999,23.386044224330337L869.0239855555556,24.469235491071434L869.4365622222222,24.535176304408473L869.7116133333334,22.568654261997775L870.2617155555556,23.04976579938618L870.3992411111111,32.226255057198664L871.0868688888888,28.399123883928574L871.3619199999999,23.93825744628906L871.636971111111,35.34851640973774L874.9375844444445,25.754391043526784L875.7627377777778,30.886236485072544L876.0377888888888,23.693231113978783L877.6880955555556,31.14644958496094L879.2008766666668,24.313653302873902L880.4386066666667,23.051803850446426L880.5761322222222,71.71431614467076L881.1262344444444,22.719371425083693L882.50149,32.815449044363824L883.4641688888888,25.72253827776226L884.0142711111112,24.196366751534615L884.97695,23.806047101702L886.3522055555557,21.30078927176339L886.6272566666668,312.69787319455827L887.3148844444445,22.611026000976555L887.5899355555556,23.22293439592634L888.0025122222222,23.692146344866085L888.2775633333333,34.45857840401786L889.7903444444445,24.28630397251673L893.3660088888888,22.08767421177456L894.4662133333334,23.51864903041294L894.87879,24.518576049804672L895.1538411111111,24.775830688476553L895.2913666666667,22.716117117745554L896.2540455555556,24.445469185965386L896.8041477777778,34.435338047572536L897.0791988888889,23.517465645926325L897.4917755555556,25.534741734095988L900.1047611111111,24.705353567940843L901.06744,24.686616646902916L901.7550677777778,23.669464808872778L903.1303233333334,23.619302455357143L904.78063,23.30813807896204L908.2187688888889,25.170588030133924L913.5822655555556,111.4088778250558L914.9575211111111,24.1466974748884L916.8828788888889,24.0060390799386L917.5705066666666,22.246050502232137L919.63339,36.24585056849889L922.2463755555555,25.358318830217645L923.2090544444445,24.053407331194187L923.6216311111111,22.203711635044634L924.58431,24.498425641741065L925.5469888888889,23.292622593470973L925.9595655555555,23.457474626813596L926.9222444444446,23.796843000139507L928.2975,39.97094770159041L928.5725511111111,42.67948468889508L928.9851277777777,23.53261954171317L929.1226533333333,136.76752537318637L929.2601788888888,24.357011195591507L929.3977044444446,24.24915884835378L930.3603833333334,24.110341273716525L931.3230622222222,24.37219796316963L932.5607922222223,22.288718087332583L933.6609966666666,36.89700788225447L936.4115077777777,24.302937098911812L939.5745955555556,23.761966029575913L941.9125300000001,24.2491917201451L944.2504644444444,23.703355625697547L944.6630411111112,56.09689522879466L946.0382966666666,22.918278634207596L946.1758222222223,23.904333757672973L946.4508733333334,24.725076642717635L948.2387055555555,24.97644723074776L951.81437,34.9658230154855L955.52756,25.47001717703684L956.2151877777778,24.720967668805823L956.6277644444444,25.358121599469854L957.7279688888889,25.85714826311383L958.5531222222223,23.24870588030136L960.0659033333333,22.819203055245545L961.3036333333333,288.18947199140274L962.2663122222223,24.184763009207575L963.0914655555555,21.957304687499995L963.6415677777778,28.341631120954226L963.9166188888889,24.243406284877217L964.0541444444444,23.832706124441966L968.1799111111112,23.21994306291855L968.7300133333333,24.26674525669641L968.8675388888889,29.605420009068073L969.9677433333333,24.224603620256698L973.1308311111112,24.331897147042415L973.4058822222222,22.469808785574788L973.5434077777778,25.087290910993325L975.056188888889,23.087995692661828L975.4687655555556,23.404846888950903L977.3941233333333,23.94460170200891L977.9442255555556,23.24163844517299L978.2192766666667,89.6308230154855L979.8695833333333,23.244268188476564L980.9697877777778,23.91110534667968L981.6574155555555,22.781334751674116L981.9324666666666,41.63984854561942L982.2075177777779,283.4798236192976L985.7831822222222,107.9909182739258L989.7714233333334,23.427725655691958L990.8716277777778,97.98622423444475L991.696781111111,40.28339407784597L993.0720366666667,22.085241699218734L993.6221388888889,36.76558646065848L994.172241111111,23.993777901785716L994.7223433333334,25.152015468052472L995.1349200000001,23.852231968470967L995.4099711111111,23.277271466936384L996.0975988888889,33.55937055315288L997.1978033333334,40.87225934709823L999.6732633333334,30.575335083007822L1001.0485188888889,29.58263985770089L1001.3235700000001,26.994216395786836L1002.286248888889,23.549844360351578L1003.3864533333333,25.219501255580344L1003.5239788888889,23.998873029436396L1003.9365555555556,26.66941022600448L1005.8619133333333,24.409244471958704L1007.7872711111111,23.100355486188626L1008.3373733333333,21.922887922014493L1008.474898888889,24.582150094168522L1008.6124244444444,23.3544544328962L1010.4002566666667,22.892770124162965L1011.2254099999999,24.583727940150677L1011.9130377777778,23.980037493024554L1012.0505633333333,65.61779867989677L1012.3256144444445,173.33870806012834L1012.7381911111111,52.05774100167411L1013.0132422222222,24.41637765066963L1013.425818888889,24.521074305943095L1014.9386,23.537714669363847L1018.5142644444445,23.962977033342614L1020.9897244444445,22.447028634207605L1023.0526077777779,23.950945957728802L1023.4651844444445,24.22874546595983L1023.60271,24.139662911551344L1024.4278633333333,23.740829467773438L1025.8031188888888,23.369608328683046L1027.7284766666667,23.330162179129463L1029.6538344444446,36.94365295410158L1030.2039366666668,24.62057721819196L1030.6165133333334,23.843783918108276L1030.7540388888888,26.815130876813598L1034.467228888889,23.9441086251395L1035.2923822222222,23.872448120117173L1035.7049588888888,31.203021937779017L1036.9426888888888,23.707563214983274L1037.7678422222223,22.08550467354912L1038.4554699999999,22.936982683454243L1038.5929955555557,23.343179408482143L1038.730521111111,23.11675851004464L1039.0055722222223,23.77462166922433L1040.2433022222222,24.269999564034592L1040.6558788888888,26.864833025251137L1040.93093,23.611478969029015L1043.1313388888889,24.77859191894532L1043.4063899999999,23.547313232421878L1043.8189666666667,39.82772530691964L1044.5065944444445,25.076443219866082L1045.0566966666668,23.135133841378348L1047.2571055555557,39.42501299176899L1047.394631111111,23.88359165736608L1047.9447333333333,64.21609619140625L1049.1824633333333,23.561645333426327L1051.9329744444444,25.319990321568078L1053.583281111111,23.6360341971261L1054.8210111111111,24.907547956194204L1055.2335877777778,23.49346923828125L1058.534201111111,24.23384059361051L1060.0469822222221,24.45444318498885L1061.0096611111112,22.735708705357155L1061.4222377777778,24.81738063267298L1061.6972888888888,25.0572789655413L1061.97234,23.175533272879477L1062.247391111111,23.31320033482144L1063.0725444444445,23.81183253696988L1063.6226466666667,24.585667375837048L1065.8230555555556,27.029191981724345L1067.3358366666666,22.883007202148423L1067.6108877777779,23.859891095842627L1069.39872,24.15097080775668L1069.8112966666665,24.071289585658477L1070.63645,26.488155168805804L1072.9743844444445,23.96725036621094L1073.5244866666667,23.96435764857702L1074.34964,23.910645141601545L1075.58737,23.101966203962057L1075.7248955555556,62.87002920968191L1076.9626255555554,23.565261230468767L1077.3752022222222,23.483574829101556L1077.7877788888889,22.695473632812494L1078.4754066666667,53.569202401297446L1078.7504577777777,29.799100603376104L1079.5756111111111,23.029944109235473L1080.8133411111112,29.351058088030154L1081.77602,23.74641767229353L1082.3261222222222,24.0571875871931L1083.01375,24.03503199986048L1085.3516844444446,22.251112758091498L1088.3772466666667,25.289846888950905L1088.6522977777777,24.588790196010034L1089.0648744444445,23.2704670061384L1090.5776555555556,28.18861293247767L1091.5403344444446,23.386274326869405L1092.5030133333335,24.56351178850447L1094.5658966666667,24.48849836077009L1096.62878,24.128289271763414L1096.7663055555556,35.863255789620524L1097.5914588888888,37.210045950753354L1098.9667144444445,24.231703927176344L1099.6543422222223,24.83730093819756L1099.9293933333333,24.559337071010063L1100.34197,24.186603829520074L1101.8547511111112,24.492640206473222L1102.6799044444444,24.67991080147881L1104.0551600000001,43.33945164271761L1104.1926855555555,41.04503348214285L1104.4677366666667,24.314836687360476L1106.255568888889,24.795192173549125L1107.2182477777778,23.902460065569198L1107.4932988888888,24.35033822195872L1107.6308244444444,25.267362583705342L1111.206488888889,23.140064610072557L1112.1691677777778,23.075603027343753L1115.3322555555555,24.0379247174944L1116.2949344444444,25.245667201450903L1116.7075111111112,25.78147739955357L1117.5326644444444,25.09080819266185L1122.7586355555557,24.413221958705368L1124.5464677777777,22.76207188197546L1124.6839933333333,307.29377022334506L1124.9590444444443,26.3371750313895L1125.7841977777778,34.705412684849314L1126.1967744444444,22.92958653041293L1128.6722344444445,33.99922799246653L1129.772438888889,24.82480965750557L1131.1476944444444,42.00745378766741L1134.4483077777777,23.82412658691408L1134.9984100000001,23.651122349330347L1136.0986144444444,26.903457380022324L1136.6487166666666,23.07313764299665L1137.8864466666666,27.083496180943065L1138.0239722222223,25.80912257603236L1140.4994322222221,26.42011056082588L1141.7371622222222,26.38911246163503L1142.5623155555556,28.29446010044643L1145.4503522222221,23.31083356584821L1146.13798,25.53829188755579L1146.6880822222222,33.56042245047435L1146.9631333333334,28.051406075613844L1148.7509655555555,25.618367571149573L1149.0260166666667,33.587475934709815L1149.4385933333333,114.56404384068081L1150.1262211111111,23.82064217703683L1150.6763233333334,50.16945382254465L1151.6390022222222,34.3871480015346L1152.051578888889,35.2872762625558L1153.1517833333332,24.32732796805247L1154.251987777778,23.54764195033482L1157.552601111111,24.459834158761154L1158.51528,23.18835327148437L1160.0280611111111,25.04008701869421L1160.1655866666667,32.378977399553555L1160.5781633333334,23.125338047572527L1160.99074,24.716727207728773L1163.4661999999998,25.998562709263386L1164.0163022222223,232.20249592372352L1164.5664044444445,23.771465977260025L1164.8414555555555,25.452134922572547L1166.4917622222222,25.518437325613846L1168.9672222222223,24.82855704171316L1169.7923755555555,26.74386483328681L1170.2049522222221,24.017182617187505" style="fill: none;" fill="none"></path></g></g></g></g></g></g><g transform="translate(40, 377)" clip-path="url(#clip_1)"><clipPath id="clip_1"><rect width="1237" height="22"></rect></clipPath><g><g><line x1="0" y1="0" x2="0" y2="5" style="visibility: inherit;" fill="rgb(0, 0, 0)" stroke="rgb(204, 204, 204)" stroke-width="1px"></line><line x1="137.52555555555554" y1="0" x2="137.52555555555554" y2="5" style="visibility: inherit;" fill="rgb(0, 0, 0)" stroke="rgb(204, 204, 204)" stroke-width="1px"></line><line x1="275.0511111111111" y1="0" x2="275.0511111111111" y2="5" style="visibility: inherit;" fill="rgb(0, 0, 0)" stroke="rgb(204, 204, 204)" stroke-width="1px"></line><line x1="412.57666666666665" y1="0" x2="412.57666666666665" y2="5" style="visibility: inherit;" fill="rgb(0, 0, 0)" stroke="rgb(204, 204, 204)" stroke-width="1px"></line><line x1="550.1022222222222" y1="0" x2="550.1022222222222" y2="5" style="visibility: inherit;" fill="rgb(0, 0, 0)" stroke="rgb(204, 204, 204)" stroke-width="1px"></line><line x1="687.6277777777779" y1="0" x2="687.6277777777779" y2="5" style="visibility: inherit;" fill="rgb(0, 0, 0)" stroke="rgb(204, 204, 204)" stroke-width="1px"></line><line x1="825.1533333333333" y1="0" x2="825.1533333333333" y2="5" style="visibility: inherit;" fill="rgb(0, 0, 0)" stroke="rgb(204, 204, 204)" stroke-width="1px"></line><line x1="962.6788888888889" y1="0" x2="962.6788888888889" y2="5" style="visibility: inherit;" fill="rgb(0, 0, 0)" stroke="rgb(204, 204, 204)" stroke-width="1px"></line><line x1="1100.2044444444443" y1="0" x2="1100.2044444444443" y2="5" style="visibility: inherit;" fill="rgb(0, 0, 0)" stroke="rgb(204, 204, 204)" stroke-width="1px"></line><line x1="1237.73" y1="0" x2="1237.73" y2="5" style="visibility: inherit;" fill="rgb(0, 0, 0)" stroke="rgb(204, 204, 204)" stroke-width="1px"></line></g><g transform="translate(0, 8)"><text x="0" y="0" dx="0em" dy="0.95em" style="text-anchor: middle; visibility: hidden; font-family: Roboto, sans-serif; font-size: 12px; font-weight: 200;" fill="rgb(33, 33, 33)" stroke="none" stroke-width="1px">-1k</text><text x="137.52555555555554" y="0" dx="0em" dy="0.95em" style="text-anchor: middle; visibility: inherit; font-family: Roboto, sans-serif; font-size: 12px; font-weight: 200;" fill="rgb(33, 33, 33)" stroke="none" stroke-width="1px">0</text><text x="275.0511111111111" y="0" dx="0em" dy="0.95em" style="text-anchor: middle; visibility: inherit; font-family: Roboto, sans-serif; font-size: 12px; font-weight: 200;" fill="rgb(33, 33, 33)" stroke="none" stroke-width="1px">1k</text><text x="412.57666666666665" y="0" dx="0em" dy="0.95em" style="text-anchor: middle; visibility: inherit; font-family: Roboto, sans-serif; font-size: 12px; font-weight: 200;" fill="rgb(33, 33, 33)" stroke="none" stroke-width="1px">2k</text><text x="550.1022222222222" y="0" dx="0em" dy="0.95em" style="text-anchor: middle; visibility: inherit; font-family: Roboto, sans-serif; font-size: 12px; font-weight: 200;" fill="rgb(33, 33, 33)" stroke="none" stroke-width="1px">3k</text><text x="687.6277777777779" y="0" dx="0em" dy="0.95em" style="text-anchor: middle; visibility: inherit; font-family: Roboto, sans-serif; font-size: 12px; font-weight: 200;" fill="rgb(33, 33, 33)" stroke="none" stroke-width="1px">4k</text><text x="825.1533333333333" y="0" dx="0em" dy="0.95em" style="text-anchor: middle; visibility: inherit; font-family: Roboto, sans-serif; font-size: 12px; font-weight: 200;" fill="rgb(33, 33, 33)" stroke="none" stroke-width="1px">5k</text><text x="962.6788888888889" y="0" dx="0em" dy="0.95em" style="text-anchor: middle; visibility: inherit; font-family: Roboto, sans-serif; font-size: 12px; font-weight: 200;" fill="rgb(33, 33, 33)" stroke="none" stroke-width="1px">6k</text><text x="1100.2044444444443" y="0" dx="0em" dy="0.95em" style="text-anchor: middle; visibility: inherit; font-family: Roboto, sans-serif; font-size: 12px; font-weight: 200;" fill="rgb(33, 33, 33)" stroke="none" stroke-width="1px">7k</text><text x="1237.73" y="0" dx="0em" dy="0.95em" style="text-anchor: middle; visibility: hidden; font-family: Roboto, sans-serif; font-size: 12px; font-weight: 200;" fill="rgb(33, 33, 33)" stroke="none" stroke-width="1px">8k</text></g><line x1="0" y1="0" x2="1237.73" y2="0" fill="rgb(0, 0, 0)" stroke="rgb(204, 204, 204)" stroke-width="1px"></line></g></g></g></g></svg>