<svg viewBox="0 0 330 200" xmlns="http://www.w3.org/2000/svg"><g><g><g><g><g><line x1="30" y1="177" x2="25" y2="177" style="visibility: inherit;" fill="rgb(0, 0, 0)" stroke="rgb(204, 204, 204)" stroke-width="1px"></line><line x1="30" y1="162.25" x2="25" y2="162.25" style="visibility: inherit;" fill="rgb(0, 0, 0)" stroke="rgb(204, 204, 204)" stroke-width="1px"></line><line x1="30" y1="147.5" x2="25" y2="147.5" style="visibility: inherit;" fill="rgb(0, 0, 0)" stroke="rgb(204, 204, 204)" stroke-width="1px"></line><line x1="30" y1="132.75" x2="25" y2="132.75" style="visibility: inherit;" fill="rgb(0, 0, 0)" stroke="rgb(204, 204, 204)" stroke-width="1px"></line><line x1="30" y1="118.00000000000001" x2="25" y2="118.00000000000001" style="visibility: inherit;" fill="rgb(0, 0, 0)" stroke="rgb(204, 204, 204)" stroke-width="1px"></line><line x1="30" y1="103.24999999999999" x2="25" y2="103.24999999999999" style="visibility: inherit;" fill="rgb(0, 0, 0)" stroke="rgb(204, 204, 204)" stroke-width="1px"></line><line x1="30" y1="88.5" x2="25" y2="88.5" style="visibility: inherit;" fill="rgb(0, 0, 0)" stroke="rgb(204, 204, 204)" stroke-width="1px"></line><line x1="30" y1="73.75" x2="25" y2="73.75" style="visibility: inherit;" fill="rgb(0, 0, 0)" stroke="rgb(204, 204, 204)" stroke-width="1px"></line><line x1="30" y1="59.00000000000001" x2="25" y2="59.00000000000001" style="visibility: inherit;" fill="rgb(0, 0, 0)" stroke="rgb(204, 204, 204)" stroke-width="1px"></line><line x1="30" y1="44.25" x2="25" y2="44.25" style="visibility: inherit;" fill="rgb(0, 0, 0)" stroke="rgb(204, 204, 204)" stroke-width="1px"></line><line x1="30" y1="29.499999999999993" x2="25" y2="29.499999999999993" style="visibility: inherit;" fill="rgb(0, 0, 0)" stroke="rgb(204, 204, 204)" stroke-width="1px"></line><line x1="30" y1="14.750000000000007" x2="25" y2="14.750000000000007" style="visibility: inherit;" fill="rgb(0, 0, 0)" stroke="rgb(204, 204, 204)" stroke-width="1px"></line><line x1="30" y1="0" x2="25" y2="0" style="visibility: inherit;" fill="rgb(0, 0, 0)" stroke="rgb(204, 204, 204)" stroke-width="1px"></line></g><g transform="translate(20, 0)"><text x="0" y="177" dx="0em" dy="0.3em" style="text-anchor: end; visibility: hidden; font-family: Roboto, sans-serif; font-size: 12px; font-weight: 200;" fill="rgb(33, 33, 33)" stroke="none" stroke-width="1px">-2</text><text x="0" y="162.25" dx="0em" dy="0.3em" style="text-anchor: end; visibility: inherit; font-family: Roboto, sans-serif; font-size: 12px; font-weight: 200;" fill="rgb(33, 33, 33)" stroke="none" stroke-width="1px">0</text><text x="0" y="147.5" dx="0em" dy="0.3em" style="text-anchor: end; visibility: hidden; font-family: Roboto, sans-serif; font-size: 12px; font-weight: 200;" fill="rgb(33, 33, 33)" stroke="none" stroke-width="1px">2</text><text x="0" y="132.75" dx="0em" dy="0.3em" style="text-anchor: end; visibility: inherit; font-family: Roboto, sans-serif; font-size: 12px; font-weight: 200;" fill="rgb(33, 33, 33)" stroke="none" stroke-width="1px">4</text><text x="0" y="118.00000000000001" dx="0em" dy="0.3em" style="text-anchor: end; visibility: hidden; font-family: Roboto, sans-serif; font-size: 12px; font-weight: 200;" fill="rgb(33, 33, 33)" stroke="none" stroke-width="1px">6</text><text x="0" y="103.24999999999999" dx="0em" dy="0.3em" style="text-anchor: end; visibility: inherit; font-family: Roboto, sans-serif; font-size: 12px; font-weight: 200;" fill="rgb(33, 33, 33)" stroke="none" stroke-width="1px">8</text><text x="0" y="88.5" dx="0em" dy="0.3em" style="text-anchor: end; visibility: hidden; font-family: Roboto, sans-serif; font-size: 12px; font-weight: 200;" fill="rgb(33, 33, 33)" stroke="none" stroke-width="1px">10</text><text x="0" y="73.75" dx="0em" dy="0.3em" style="text-anchor: end; visibility: inherit; font-family: Roboto, sans-serif; font-size: 12px; font-weight: 200;" fill="rgb(33, 33, 33)" stroke="none" stroke-width="1px">12</text><text x="0" y="59.00000000000001" dx="0em" dy="0.3em" style="text-anchor: end; visibility: hidden; font-family: Roboto, sans-serif; font-size: 12px; font-weight: 200;" fill="rgb(33, 33, 33)" stroke="none" stroke-width="1px">14</text><text x="0" y="44.25" dx="0em" dy="0.3em" style="text-anchor: end; visibility: inherit; font-family: Roboto, sans-serif; font-size: 12px; font-weight: 200;" fill="rgb(33, 33, 33)" stroke="none" stroke-width="1px">16</text><text x="0" y="29.499999999999993" dx="0em" dy="0.3em" style="text-anchor: end; visibility: hidden; font-family: Roboto, sans-serif; font-size: 12px; font-weight: 200;" fill="rgb(33, 33, 33)" stroke="none" stroke-width="1px">18</text><text x="0" y="14.750000000000007" dx="0em" dy="0.3em" style="text-anchor: end; visibility: inherit; font-family: Roboto, sans-serif; font-size: 12px; font-weight: 200;" fill="rgb(33, 33, 33)" stroke="none" stroke-width="1px">20</text><text x="0" y="0" dx="0em" dy="0.3em" style="text-anchor: end; visibility: hidden; font-family: Roboto, sans-serif; font-size: 12px; font-weight: 200;" fill="rgb(33, 33, 33)" stroke="none" stroke-width="1px">22</text></g><line x1="30" y1="0" x2="30" y2="177" fill="rgb(0, 0, 0)" stroke="rgb(204, 204, 204)" stroke-width="1px"></line></g></g><g transform="translate(30, 0)" clip-path="url(#clip_0)"><clipPath id="clip_0"><rect width="300" height="176"></rect></clipPath><g><g><g><line x1="0" y1="0" x2="0" y2="177" fill="rgb(0, 0, 0)" stroke="rgb(66, 66, 66)" stroke-width="1px" opacity="0.25"></line><line x1="42.857142857142854" y1="0" x2="42.857142857142854" y2="177" fill="rgb(0, 0, 0)" stroke="rgb(66, 66, 66)" stroke-width="1px" opacity="0.25"></line><line x1="85.71428571428571" y1="0" x2="85.71428571428571" y2="177" fill="rgb(0, 0, 0)" stroke="rgb(66, 66, 66)" stroke-width="1px" opacity="0.25"></line><line x1="128.57142857142856" y1="0" x2="128.57142857142856" y2="177" fill="rgb(0, 0, 0)" stroke="rgb(66, 66, 66)" stroke-width="1px" opacity="0.25"></line><line x1="171.42857142857142" y1="0" x2="171.42857142857142" y2="177" fill="rgb(0, 0, 0)" stroke="rgb(66, 66, 66)" stroke-width="1px" opacity="0.25"></line><line x1="214.28571428571428" y1="0" x2="214.28571428571428" y2="177" fill="rgb(0, 0, 0)" stroke="rgb(66, 66, 66)" stroke-width="1px" opacity="0.25"></line><line x1="257.1428571428571" y1="0" x2="257.1428571428571" y2="177" fill="rgb(0, 0, 0)" stroke="rgb(66, 66, 66)" stroke-width="1px" opacity="0.25"></line><line x1="300" y1="0" x2="300" y2="177" fill="rgb(0, 0, 0)" stroke="rgb(66, 66, 66)" stroke-width="1px" opacity="0.25"></line></g><g><line x1="0" y1="177" x2="300" y2="177" fill="rgb(0, 0, 0)" stroke="rgb(66, 66, 66)" stroke-width="1px" opacity="0.25"></line><line x1="0" y1="162.25" x2="300" y2="162.25" fill="rgb(0, 0, 0)" stroke="rgb(66, 66, 66)" stroke-width="1px" opacity="0.25"></line><line x1="0" y1="147.5" x2="300" y2="147.5" fill="rgb(0, 0, 0)" stroke="rgb(66, 66, 66)" stroke-width="1px" opacity="0.25"></line><line x1="0" y1="132.75" x2="300" y2="132.75" fill="rgb(0, 0, 0)" stroke="rgb(66, 66, 66)" stroke-width="1px" opacity="0.25"></line><line x1="0" y1="118.00000000000001" x2="300" y2="118.00000000000001" fill="rgb(0, 0, 0)" stroke="rgb(66, 66, 66)" stroke-width="1px" opacity="0.25"></line><line x1="0" y1="103.24999999999999" x2="300" y2="103.24999999999999" fill="rgb(0, 0, 0)" stroke="rgb(66, 66, 66)" stroke-width="1px" opacity="0.25"></line><line x1="0" y1="88.5" x2="300" y2="88.5" fill="rgb(0, 0, 0)" stroke="rgb(66, 66, 66)" stroke-width="1px" opacity="0.25"></line><line x1="0" y1="73.75" x2="300" y2="73.75" fill="rgb(0, 0, 0)" stroke="rgb(66, 66, 66)" stroke-width="1px" opacity="0.25"></line><line x1="0" y1="59.00000000000001" x2="300" y2="59.00000000000001" fill="rgb(0, 0, 0)" stroke="rgb(66, 66, 66)" stroke-width="1px" opacity="0.25"></line><line x1="0" y1="44.25" x2="300" y2="44.25" fill="rgb(0, 0, 0)" stroke="rgb(66, 66, 66)" stroke-width="1px" opacity="0.25"></line><line x1="0" y1="29.499999999999993" x2="300" y2="29.499999999999993" fill="rgb(0, 0, 0)" stroke="rgb(66, 66, 66)" stroke-width="1px" opacity="0.25"></line><line x1="0" y1="14.750000000000007" x2="300" y2="14.750000000000007" fill="rgb(0, 0, 0)" stroke="rgb(66, 66, 66)" stroke-width="1px" opacity="0.25"></line><line x1="0" y1="0" x2="300" y2="0" fill="rgb(0, 0, 0)" stroke="rgb(66, 66, 66)" stroke-width="1px" opacity="0.25"></line></g></g></g><g><g><line x1="0" y1="162.25" x2="300" y2="162.25" fill="rgb(0, 0, 0)" stroke="rgb(153, 153, 153)" stroke-width="1.5px"></line></g></g><g><g><line x1="42.857142857142854" y1="0" x2="42.857142857142854" y2="177" fill="rgb(0, 0, 0)" stroke="rgb(153, 153, 153)" stroke-width="1.5px"></line></g></g><g><g><g><g><g><path stroke="rgb(255, 112, 67)" stroke-width="2px" d="M42.857142857142854,158.62175595760345L43.714285714285715,157.48588636637595L44.57142857142857,157.2127259286945L45.42857142857143,155.9519393355754L46.285714285714285,156.0596476438156L47.14285714285714,156.68231068341993L48,157.15660115390384L48.85714285714286,155.56816057812182L49.71428571428571,155.18546951259776L50.57142857142857,153.20394343283317L51.42857142857143,153.38962217711193L52.285714285714285,155.29842491604674L53.14285714285714,156.64357246987245L54,156.9509837541022L54.857142857142854,156.43322994869206L55.714285714285715,157.03329428330224L56.57142857142858,157.66123799901277L57.42857142857142,157.66301424289892L58.285714285714285,155.66197405764262L59.142857142857146,156.1520630480921L60,157.06186807355573L60.857142857142854,157.9394188760368L61.714285714285715,158.5098490173022L62.57142857142857,158.8685520680993L63.42857142857143,158.811594130881L64.28571428571428,158.80760375144024L65.14285714285714,158.22726642234178L66,157.82889884564926L66.85714285714286,157.98314242146333L67.71428571428571,156.11327257742252L68.57142857142857,156.57932568038913L69.42857142857143,157.59981297231187L70.28571428571429,158.17248340649007L71.14285714285715,158.26091761815286L72,158.52717748847576L72.85714285714286,158.5383105553101L73.71428571428572,158.21384322083802L74.57142857142857,157.481290612891L75.42857142857143,157.33852019549514L76.28571428571428,157.9071142880298L77.14285714285714,158.52598757072778L78,158.75874116890643L78.85714285714285,158.83329924262898L79.71428571428572,158.92486963806505L80.57142857142857,159.1315049024199L81.42857142857142,158.8905175845848L82.28571428571429,158.19981612955203L83.14285714285714,158.0867846646682L84.00000000000001,151.21326152451653L84.85714285714286,139.27363694763181L85.71428571428571,140.73827563903217L86.57142857142858,113.92649924338967L87.42857142857143,119.41731628940522L88.28571428571428,131.46255316862167L89.14285714285714,133.73441515569291L90,141.97253197087707L90.85714285714286,147.9018381148678L91.71428571428571,151.74052131318075L92.57142857142857,153.56731503431243L93.42857142857143,155.29305934049006L94.28571428571428,156.53281774859536L95.14285714285714,157.6606471972187L96,158.43025171881482L96.85714285714285,158.82175346632076L97.71428571428572,159.08268801160696L98.57142857142857,159.1677914755393L99.42857142857142,159.12920858797162L100.28571428571429,159.21765770587828L101.14285714285714,159.01754536993406L102.00000000000001,158.72139355547804L102.85714285714286,158.41556878012187L103.71428571428571,158.57185405958924L104.57142857142857,158.7385822760113L105.42857142857143,158.48757989482658L106.28571428571428,158.82993622738493L107.14285714285714,158.74419078949197L108,158.6051518473642L108.85714285714286,156.61812156984186L109.71428571428571,156.12879776399058L110.57142857142857,156.93521366467772L111.42857142857143,156.63038351498855L112.28571428571428,152.69811059505287L113.14285714285715,151.5244647422877L114,132.93923283899954L114.85714285714285,102.90806444537682L115.71428571428572,97.2877158610672L116.57142857142857,80.6413695252513L117.42857142857142,85.82435180672499L118.28571428571429,81.86515579325548L119.14285714285714,49.973316878326905L120,25.3977901205565L120.85714285714286,29.89528261732971L121.71428571428571,21.09085893010297L122.57142857142857,59.25905158304927L123.42857142857143,80.14522555102737L124.28571428571429,106.05279314644464L125.14285714285714,124.02408122691556L126,135.98991031606474L126.85714285714286,143.41338548543288L127.71428571428571,148.61183114346335L128.57142857142856,152.19716769765228L129.42857142857144,154.5616044633642L130.28571428571428,156.276675230784L131.14285714285714,157.26045006255893L132,158.12783419606595L132.85714285714286,158.40938778676076L133.71428571428572,158.4135972430886L134.57142857142858,156.05114775223984L135.42857142857142,154.4345591341848L136.28571428571428,147.15517875786492L137.14285714285714,132.16496833506608L138,140.89829993839226L138.85714285714286,139.7615807491997L139.7142857142857,145.0413455317317L140.57142857142858,132.2470041731976L141.42857142857142,139.74319709024314L142.2857142857143,144.83656789663755L143.14285714285714,149.4392568868111L144,151.91294210913122L144.85714285714286,153.6639010838785L145.71428571428572,154.65647685471865L146.57142857142856,155.03835442470182L147.42857142857144,142.0844505407892L148.28571428571428,134.76270672441856L149.14285714285714,131.0926327380614L150,138.97366713581977L150.85714285714286,132.91310828199292L151.7142857142857,131.8503853860717L152.57142857142856,115.50972554763908L153.42857142857144,120.08889491294168L154.28571428571428,113.6310226677802L155.14285714285714,101.94575567028737L156,107.48212557646578L156.85714285714286,111.27502178861086L157.7142857142857,116.56934495200684L158.57142857142858,128.38335393703053L159.42857142857144,138.3024758632562L160.28571428571428,140.72954800473556L161.14285714285714,141.79025213381846L162,147.0912608648665L162.85714285714283,150.96000384540628L163.71428571428572,151.4771163232932L164.57142857142858,151.82874511044795L165.42857142857142,154.10818520112434L166.28571428571428,155.61910777831048L167.14285714285714,156.70863174106827L168.00000000000003,157.55749315366327L168.85714285714286,157.80560802596165L169.71428571428572,154.74912558068917L170.57142857142858,155.06770261365142L171.42857142857142,156.24747944195838L172.28571428571428,156.79573918016015L173.14285714285717,157.58774314038854L174,158.0208444475323L174.85714285714286,158.55925187351585L175.71428571428572,158.41965951619994L176.57142857142856,158.71097987609753L177.42857142857142,159.04127622545064L178.28571428571428,159.0152503568036L179.14285714285717,159.16529973577727L180,159.0106681884709L180.85714285714286,158.31386414076556L181.71428571428572,158.1899341473476L182.57142857142856,158.6135620092656L183.42857142857142,158.4556059544258L184.2857142857143,158.48855341916502L185.14285714285714,154.71470670829396L186,155.9545317724964L186.85714285714286,156.97898428770444L187.7142857142857,157.42452273264652L188.57142857142856,157.8579851026363L189.42857142857144,158.15485412553429L190.28571428571428,158.4126663710298L191.14285714285714,158.20863581906033L192,154.14522213713735L192.85714285714286,155.1267669564869L193.7142857142857,151.339356238148L194.57142857142858,149.1948028073454L195.42857142857144,152.3961960607259L196.28571428571428,154.79721204831105L197.14285714285714,155.99662566352794L198,156.27009870165074L198.85714285714283,156.09682797168404L199.71428571428572,145.13081556860243L200.57142857142858,128.80640878072688L201.42857142857142,127.56072173815606L202.28571428571428,137.6415110801432L203.14285714285714,144.11498967505247L204.00000000000003,148.73689381925706L204.85714285714286,152.23646060827542L205.71428571428572,153.99779460338206L206.57142857142858,155.53211906239082L207.42857142857142,156.61236940956314L208.28571428571428,157.41854000667036L209.14285714285714,157.942641543296L210,156.52526416029124L210.85714285714286,155.85523518775923L211.71428571428572,156.53117526847007L212.57142857142856,156.54303362919873L213.42857142857142,157.38036454260217L214.28571428571428,156.8736802502218L215.14285714285717,157.43588785469152L216,157.20731714896428L216.85714285714286,156.73414587694663L217.71428571428572,156.98475536187695L218.57142857142856,157.63840110287444L219.42857142857142,157.7868925464591L220.2857142857143,149.58578436841645L221.14285714285714,151.30308477828467L222,153.68299304373275L222.85714285714286,154.4944347803567L223.7142857142857,150.31005562690348L224.57142857142856,152.843307485209L225.42857142857144,153.84864747748753L226.2857142857143,153.3698717077208L227.14285714285714,154.57119682370538L228,154.18400192075967L228.85714285714286,153.38882362869066L229.7142857142857,148.10652359035302L230.57142857142858,151.6799592375734L231.42857142857144,153.95536681549854L232.28571428571428,155.56039244447874L233.14285714285714,155.62877539966271L234,154.56785138269967L234.85714285714283,144.91788080532478L235.71428571428572,146.49731293658934L236.57142857142858,148.38581800573334L237.42857142857144,151.64430314660913L238.28571428571428,154.1603477183952L239.14285714285714,155.78822203141698L240,157.00679693967794L240.85714285714286,157.76396070942667L241.71428571428572,157.5468890210423L242.57142857142858,158.13917465660296L243.42857142857142,158.19206429923724L244.28571428571428,158.37364411690575L245.14285714285714,158.09589171979164L245.99999999999997,157.70082207709424L246.85714285714286,156.0601595767427L247.71428571428572,155.73443136123046L248.57142857142858,151.09086188406042L249.42857142857142,152.13865769539458L250.28571428571428,151.25923461811706L251.14285714285717,150.18595465458716L252,151.7206804331732L252.85714285714286,150.68629869427588L253.71428571428572,146.68505840724688L254.57142857142856,145.6403787898702L255.42857142857142,145.021266774314L256.2857142857143,149.60457007695658L257.1428571428571,152.3727030216659L258,147.00939196230175L258.8571428571429,148.3970297290309L259.7142857142857,151.5565028624733L260.57142857142856,147.72592103307753L261.42857142857144,142.1448028930841L262.2857142857143,130.40719991266394L263.1428571428571,125.0627862050553L264,126.87941030419074L264.8571428571429,117.90192473632459L265.7142857142857,113.57583646658725L266.57142857142856,124.66241795936496L267.42857142857144,134.39498209188457L268.2857142857143,125.8650722537591L269.14285714285717,126.75144094453694L270,117.99414022243154L270.85714285714283,118.13858762169554L271.7142857142857,119.53893778024354L272.57142857142856,119.73988809922072L273.42857142857144,125.95798860204997L274.2857142857143,130.6987047208555L275.14285714285717,126.8805109360572L276,129.9287061589137L276.85714285714283,128.96005727907294L277.7142857142857,134.6354537303245" style="fill: none;" fill="none"></path></g></g></g></g><g opacity="0.2"><g><g><g><path stroke="rgb(255, 112, 67)" stroke-width="2px" d="M42.857142857142854,158.62175595760345L43.714285714285715,156.7328048273921L44.57142857142857,156.91154769808054L45.42857142857143,154.19439873099327L46.285714285714285,156.2306048721075L47.14285714285714,157.7503830343485L48,158.01044899225235L48.85714285714286,152.6191019564867L49.71428571428571,154.460687443614L50.57142857142857,149.4020652472973L51.42857142857143,153.74892404675484L52.285714285714285,159.01286571845412L53.14285714285714,159.27087024599314L54,157.55287958681583L54.857142857142854,155.41785226762295L55.714285714285715,158.21135438233614L56.57142857142858,158.89490680024028L57.42857142857142,157.666505523026L58.285714285714285,151.72762157022953L59.142857142857146,157.11585239320993L60,158.8512991629541L60.857142857142854,159.66556811332703L61.714285714285715,159.63195706158876L62.57142857142857,159.5741943717003L63.42857142857143,158.69954324886203L64.28571428571428,158.79975351318717L65.14285714285714,157.08556064218283L66,157.04517867416143L66.85714285714286,158.28659186512232L67.71428571428571,152.4345917403698L68.57142857142857,157.49621541798115L69.42857142857143,159.60747199878097L70.28571428571429,159.29912957921624L71.14285714285715,158.4348992407322L72,159.0510058067739L72.85714285714286,158.56021328270435L73.71428571428572,157.57549971342087L74.57142857142857,156.0400969684124L75.42857142857143,157.0576395690441L76.28571428571428,159.0257428996265L77.14285714285714,159.74353343620896L78,159.21665104478598L78.85714285714285,158.979981739074L79.71428571428572,159.1050214804709L80.57142857142857,159.53803065419197L81.42857142857142,158.41640900820494L82.28571428571429,156.84095837920904L83.14285714285714,157.86441119015217L84.00000000000001,137.6905736029148L84.85714285714286,115.78410851955414L85.71428571428571,143.61974582076073L86.57142857142858,61.178108334541314L87.42857142857143,130.21972489356995L88.28571428571428,155.15985894948244L89.14285714285714,138.20398339629173L90,158.17986564338207L90.85714285714286,159.56691221892834L91.71428571428571,159.2925894446671L92.57142857142857,157.1612741947174L93.42857142857143,158.6882180199027L94.28571428571428,158.97186767309904L95.14285714285714,159.87949267029762L96,159.94434013962746L96.85714285714285,159.59197797253728L97.71428571428572,159.59603995084763L98.57142857142857,159.33522054553032L99.42857142857142,159.05330219492316L100.28571428571429,159.3916688784957L101.14285714285714,158.62385255470872L102.00000000000001,158.13875660300255L102.85714285714286,157.8139016404748L103.71428571428571,158.87932331860065L104.57142857142857,159.06659654155374L105.42857142857143,157.99376808851957L106.28571428571428,159.50347405672073L107.14285714285714,158.57549872621894L108,158.33161232620478L108.85714285714286,152.70891956984997L109.71428571428571,155.1661221459508L110.57142857142857,158.52172328531742L111.42857142857143,156.03067316114902L112.28571428571428,144.96191787719727L113.14285714285715,149.21548195183277L114,96.3754086494446L114.85714285714285,43.82597351074219L115.71428571428572,86.2304722070694L116.57142857142857,47.892029404640205L117.42857142857142,96.0211389064789L118.28571428571429,74.07599568367004L119.14285714285714,-12.769381046295154L120,-22.951094865798964L120.85714285714286,38.7434651851654L121.71428571428571,3.7693963050842285L122.57142857142857,134.34959083795547L123.42857142857143,121.23582893610002L124.28571428571429,157.0222807303071L125.14285714285714,159.38005748018622L126,159.53099247068167L126.85714285714286,158.0180265456438L127.71428571428571,158.8390402570367L128.57142857142856,159.25081201642752L129.42857142857144,159.2133005335927L130.28571428571428,159.65083522722125L131.14285714285714,159.19588838145137L132,159.8342902213335L132.85714285714286,158.9633047915995L133.71428571428572,158.42187875509262L134.57142857142858,151.4033613651991L135.42857142857142,151.25414888560772L136.28571428571428,132.8340238928795L137.14285714285714,102.67384219169615L138,158.07989890873432L138.85714285714286,137.52524596452713L139.7142857142857,155.4285385608673L140.57142857142858,107.0759409070015L141.42857142857142,154.49090006947517L142.2857142857143,154.8570570498705L143.14285714285714,158.49439872801304L144,156.779569119215L144.85714285714286,157.10866606980562L145.71428571428572,156.60922978073359L146.57142857142856,155.78964471817017L147.42857142857144,116.59947049617766L148.28571428571428,120.35820776224136L149.14285714285714,123.87227946519853L150,154.47849148511887L150.85714285714286,120.98981297016145L151.7142857142857,129.75962787866592L152.57142857142856,83.36178052425385L153.42857142857144,129.09776520729065L154.28571428571428,100.92606925964355L155.14285714285714,78.9566398859024L156,118.37415301799773L156.85714285714286,118.73701047897337L157.7142857142857,126.98517954349519L158.57142857142858,151.62575143575668L159.42857142857144,157.81695015728474L160.28571428571428,145.50447034835815L161.14285714285714,143.87703800201416L162,157.52024836838245L162.85714285714283,158.57121036201715L163.71428571428572,152.49446223676205L164.57142857142858,152.52052518725395L165.42857142857142,158.59266229346395L166.28571428571428,158.5916349850595L167.14285714285714,158.85211656987667L168.00000000000003,159.22750833630562L168.85714285714286,158.29373906552792L169.71428571428572,148.73592717945576L170.57142857142858,155.69445802271366L171.42857142857142,158.56852406263351L172.28571428571428,157.87436293810606L173.14285714285717,159.14589929953218L174,158.87291022390127L174.85714285714286,159.61849259585142L175.71428571428572,158.14503122866154L176.57142857142856,159.28411162272096L177.42857142857142,159.69108773767948L178.28571428571428,158.9640481285751L179.14285714285717,159.46050073951483L180,158.70645241439342L180.85714285714286,156.94300039112568L181.71428571428572,157.94611935317516L182.57142857142856,159.4469901174307L183.42857142857142,158.14484968036413L184.2857142857143,158.5533729121089L185.14285714285714,147.2901952266693L186,158.39371283352375L186.85714285714286,158.99445021525025L187.7142857142857,158.30105682462454L188.57142857142856,158.71076121926308L189.42857142857144,158.7389020845294L190.28571428571428,158.91987562552094L191.14285714285714,157.8072344660759L192,146.15102845430374L192.85714285714286,157.05781804025173L193.7142857142857,143.8881594836712L194.57142857142858,144.97569620609283L195.42857142857144,158.69448605179787L196.28571428571428,159.52087258175015L197.14285714285714,158.3563028946519L198,156.80811835825443L198.85714285714283,155.75594223290682L199.71428571428572,123.5567318201065L200.57142857142858,96.69043934345244L201.42857142857142,125.11000806093217L202.28571428571428,157.47404322773218L203.14285714285714,156.8506463766098L204.00000000000003,157.82983876764774L204.85714285714286,159.1213650032878L205.71428571428572,157.46297097951174L206.57142857142858,158.550686173141L207.42857142857142,158.73760970681906L208.28571428571428,159.00456702709198L209.14285714285714,158.9737374447286L210,153.7367739379406L210.85714285714286,154.537047624588L211.71428571428572,157.86099210381508L212.57142857142856,156.5663632825017L213.42857142857142,159.02769509330392L214.28571428571428,155.87685032188892L215.14285714285717,158.54195207357407L216,156.75763650238514L216.85714285714286,155.80324809253216L217.71428571428572,157.47779420018196L218.57142857142856,158.92435696721077L219.42857142857142,158.079028531909L220.2857142857143,133.45125997066498L221.14285714285714,154.68163128197193L222,158.36512710899115L222.85714285714286,156.0908320248127L223.7142857142857,142.07787942886353L224.57142857142856,157.82712345570326L225.42857142857144,155.8265122100711L226.2857142857143,152.42794786393642L227.14285714285714,156.93463466316462L228,153.42225052416325L228.85714285714286,151.8244224190712L229.7142857142857,137.71434280276299L230.57142857142858,158.71019019931555L231.42857142857144,158.43191050738096L232.28571428571428,158.71805414184928L233.14285714285714,155.76330922544003L234,152.48063291609287L234.85714285714283,125.93292385339737L235.71428571428572,149.60462303459644L236.57142857142858,152.10118554532528L237.42857142857144,158.05491337925196L238.28571428571428,159.1103107780218L239.14285714285714,158.99083529412746L240,159.4041713140905L240.85714285714286,159.25357370451093L241.71428571428572,157.11983107030392L242.57142857142858,159.30441316217184L243.42857142857142,158.29611721634865L244.28571428571428,158.730876814574L245.14285714285714,157.5494530275464L245.99999999999997,156.92357823997736L246.85714285714286,152.8323873579502L247.71428571428572,155.09360700845718L248.57142857142858,141.95529344677925L249.42857142857142,154.20004826784134L250.28571428571428,149.5290936678648L251.14285714285717,148.0744276046753L252,154.7400370836258L252.85714285714286,148.6512984186411L253.71428571428572,138.8131821155548L254.57142857142856,143.58511888980865L255.42857142857142,143.8032511472702L256.2857142857143,158.6215733103454L257.1428571428571,157.818614423275L258,136.4578334093094L258.8571428571429,151.1270114481449L259.7142857142857,157.77232092618942L260.57142857142856,140.18979120254517L261.42857142857144,131.16473960876465L262.2857142857143,107.3151204586029L263.1428571428571,114.54840552806854L264,130.45336216688156L264.8571428571429,100.23998725414278L265.7142857142857,105.06486755609511L266.57142857142856,146.47370439767838L267.42857142857144,153.54243022203445L268.2857142857143,109.08367693424223L269.14285714285717,128.49524641036987L270,100.76538538932799L270.85714285714283,118.42276751995085L271.7142857142857,122.29392933845519L272.57142857142856,120.1352295279503L273.42857142857144,138.19122490286827L274.2857142857143,140.02539548277855L275.14285714285717,119.36875283718109L276,135.925600618124L276.85714285714283,127.05437713861467L277.7142857142857,145.80099630355835" style="fill: none;" fill="none"></path></g></g></g></g></g></g><g transform="translate(30, 177)" clip-path="url(#clip_1)"><clipPath id="clip_1"><rect width="300" height="22"></rect></clipPath><g><g><line x1="0" y1="0" x2="0" y2="5" style="visibility: inherit;" fill="rgb(0, 0, 0)" stroke="rgb(204, 204, 204)" stroke-width="1px"></line><line x1="42.857142857142854" y1="0" x2="42.857142857142854" y2="5" style="visibility: inherit;" fill="rgb(0, 0, 0)" stroke="rgb(204, 204, 204)" stroke-width="1px"></line><line x1="85.71428571428571" y1="0" x2="85.71428571428571" y2="5" style="visibility: inherit;" fill="rgb(0, 0, 0)" stroke="rgb(204, 204, 204)" stroke-width="1px"></line><line x1="128.57142857142856" y1="0" x2="128.57142857142856" y2="5" style="visibility: inherit;" fill="rgb(0, 0, 0)" stroke="rgb(204, 204, 204)" stroke-width="1px"></line><line x1="171.42857142857142" y1="0" x2="171.42857142857142" y2="5" style="visibility: inherit;" fill="rgb(0, 0, 0)" stroke="rgb(204, 204, 204)" stroke-width="1px"></line><line x1="214.28571428571428" y1="0" x2="214.28571428571428" y2="5" style="visibility: inherit;" fill="rgb(0, 0, 0)" stroke="rgb(204, 204, 204)" stroke-width="1px"></line><line x1="257.1428571428571" y1="0" x2="257.1428571428571" y2="5" style="visibility: inherit;" fill="rgb(0, 0, 0)" stroke="rgb(204, 204, 204)" stroke-width="1px"></line><line x1="300" y1="0" x2="300" y2="5" style="visibility: inherit;" fill="rgb(0, 0, 0)" stroke="rgb(204, 204, 204)" stroke-width="1px"></line></g><g transform="translate(0, 8)"><text x="0" y="0" dx="0em" dy="0.95em" style="text-anchor: middle; visibility: hidden; font-family: Roboto, sans-serif; font-size: 12px; font-weight: 200;" fill="rgb(33, 33, 33)" stroke="none" stroke-width="1px">-50</text><text x="42.857142857142854" y="0" dx="0em" dy="0.95em" style="text-anchor: middle; visibility: inherit; font-family: Roboto, sans-serif; font-size: 12px; font-weight: 200;" fill="rgb(33, 33, 33)" stroke="none" stroke-width="1px">0</text><text x="85.71428571428571" y="0" dx="0em" dy="0.95em" style="text-anchor: middle; visibility: inherit; font-family: Roboto, sans-serif; font-size: 12px; font-weight: 200;" fill="rgb(33, 33, 33)" stroke="none" stroke-width="1px">50</text><text x="128.57142857142856" y="0" dx="0em" dy="0.95em" style="text-anchor: middle; visibility: inherit; font-family: Roboto, sans-serif; font-size: 12px; font-weight: 200;" fill="rgb(33, 33, 33)" stroke="none" stroke-width="1px">100</text><text x="171.42857142857142" y="0" dx="0em" dy="0.95em" style="text-anchor: middle; visibility: inherit; font-family: Roboto, sans-serif; font-size: 12px; font-weight: 200;" fill="rgb(33, 33, 33)" stroke="none" stroke-width="1px">150</text><text x="214.28571428571428" y="0" dx="0em" dy="0.95em" style="text-anchor: middle; visibility: inherit; font-family: Roboto, sans-serif; font-size: 12px; font-weight: 200;" fill="rgb(33, 33, 33)" stroke="none" stroke-width="1px">200</text><text x="257.1428571428571" y="0" dx="0em" dy="0.95em" style="text-anchor: middle; visibility: inherit; font-family: Roboto, sans-serif; font-size: 12px; font-weight: 200;" fill="rgb(33, 33, 33)" stroke="none" stroke-width="1px">250</text><text x="300" y="0" dx="0em" dy="0.95em" style="text-anchor: middle; visibility: hidden; font-family: Roboto, sans-serif; font-size: 12px; font-weight: 200;" fill="rgb(33, 33, 33)" stroke="none" stroke-width="1px">300</text></g><line x1="0" y1="0" x2="300" y2="0" fill="rgb(0, 0, 0)" stroke="rgb(204, 204, 204)" stroke-width="1px"></line></g></g></g></g></svg>