<svg viewBox="0 0 330 200" xmlns="http://www.w3.org/2000/svg"><g><g><g><g><g><line x1="30" y1="177" x2="25" y2="177" style="visibility: inherit;" fill="rgb(0, 0, 0)" stroke="rgb(204, 204, 204)" stroke-width="1px"></line><line x1="30" y1="160.9090909090909" x2="25" y2="160.9090909090909" style="visibility: inherit;" fill="rgb(0, 0, 0)" stroke="rgb(204, 204, 204)" stroke-width="1px"></line><line x1="30" y1="144.8181818181818" x2="25" y2="144.8181818181818" style="visibility: inherit;" fill="rgb(0, 0, 0)" stroke="rgb(204, 204, 204)" stroke-width="1px"></line><line x1="30" y1="128.72727272727272" x2="25" y2="128.72727272727272" style="visibility: inherit;" fill="rgb(0, 0, 0)" stroke="rgb(204, 204, 204)" stroke-width="1px"></line><line x1="30" y1="112.63636363636364" x2="25" y2="112.63636363636364" style="visibility: inherit;" fill="rgb(0, 0, 0)" stroke="rgb(204, 204, 204)" stroke-width="1px"></line><line x1="30" y1="96.54545454545453" x2="25" y2="96.54545454545453" style="visibility: inherit;" fill="rgb(0, 0, 0)" stroke="rgb(204, 204, 204)" stroke-width="1px"></line><line x1="30" y1="80.45454545454547" x2="25" y2="80.45454545454547" style="visibility: inherit;" fill="rgb(0, 0, 0)" stroke="rgb(204, 204, 204)" stroke-width="1px"></line><line x1="30" y1="64.36363636363636" x2="25" y2="64.36363636363636" style="visibility: inherit;" fill="rgb(0, 0, 0)" stroke="rgb(204, 204, 204)" stroke-width="1px"></line><line x1="30" y1="48.272727272727266" x2="25" y2="48.272727272727266" style="visibility: inherit;" fill="rgb(0, 0, 0)" stroke="rgb(204, 204, 204)" stroke-width="1px"></line><line x1="30" y1="32.18181818181817" x2="25" y2="32.18181818181817" style="visibility: inherit;" fill="rgb(0, 0, 0)" stroke="rgb(204, 204, 204)" stroke-width="1px"></line><line x1="30" y1="16.090909090909097" x2="25" y2="16.090909090909097" style="visibility: inherit;" fill="rgb(0, 0, 0)" stroke="rgb(204, 204, 204)" stroke-width="1px"></line><line x1="30" y1="0" x2="25" y2="0" style="visibility: inherit;" fill="rgb(0, 0, 0)" stroke="rgb(204, 204, 204)" stroke-width="1px"></line></g><g transform="translate(20, 0)"><text x="0" y="177" dx="0em" dy="0.3em" style="text-anchor: end; visibility: hidden; font-family: Roboto, sans-serif; font-size: 12px; font-weight: 200;" fill="rgb(33, 33, 33)" stroke="none" stroke-width="1px">-5</text><text x="0" y="160.9090909090909" dx="0em" dy="0.3em" style="text-anchor: end; visibility: inherit; font-family: Roboto, sans-serif; font-size: 12px; font-weight: 200;" fill="rgb(33, 33, 33)" stroke="none" stroke-width="1px">0</text><text x="0" y="144.8181818181818" dx="0em" dy="0.3em" style="text-anchor: end; visibility: hidden; font-family: Roboto, sans-serif; font-size: 12px; font-weight: 200;" fill="rgb(33, 33, 33)" stroke="none" stroke-width="1px">5</text><text x="0" y="128.72727272727272" dx="0em" dy="0.3em" style="text-anchor: end; visibility: inherit; font-family: Roboto, sans-serif; font-size: 12px; font-weight: 200;" fill="rgb(33, 33, 33)" stroke="none" stroke-width="1px">10</text><text x="0" y="112.63636363636364" dx="0em" dy="0.3em" style="text-anchor: end; visibility: hidden; font-family: Roboto, sans-serif; font-size: 12px; font-weight: 200;" fill="rgb(33, 33, 33)" stroke="none" stroke-width="1px">15</text><text x="0" y="96.54545454545453" dx="0em" dy="0.3em" style="text-anchor: end; visibility: inherit; font-family: Roboto, sans-serif; font-size: 12px; font-weight: 200;" fill="rgb(33, 33, 33)" stroke="none" stroke-width="1px">20</text><text x="0" y="80.45454545454547" dx="0em" dy="0.3em" style="text-anchor: end; visibility: hidden; font-family: Roboto, sans-serif; font-size: 12px; font-weight: 200;" fill="rgb(33, 33, 33)" stroke="none" stroke-width="1px">25</text><text x="0" y="64.36363636363636" dx="0em" dy="0.3em" style="text-anchor: end; visibility: inherit; font-family: Roboto, sans-serif; font-size: 12px; font-weight: 200;" fill="rgb(33, 33, 33)" stroke="none" stroke-width="1px">30</text><text x="0" y="48.272727272727266" dx="0em" dy="0.3em" style="text-anchor: end; visibility: hidden; font-family: Roboto, sans-serif; font-size: 12px; font-weight: 200;" fill="rgb(33, 33, 33)" stroke="none" stroke-width="1px">35</text><text x="0" y="32.18181818181817" dx="0em" dy="0.3em" style="text-anchor: end; visibility: inherit; font-family: Roboto, sans-serif; font-size: 12px; font-weight: 200;" fill="rgb(33, 33, 33)" stroke="none" stroke-width="1px">40</text><text x="0" y="16.090909090909097" dx="0em" dy="0.3em" style="text-anchor: end; visibility: hidden; font-family: Roboto, sans-serif; font-size: 12px; font-weight: 200;" fill="rgb(33, 33, 33)" stroke="none" stroke-width="1px">45</text><text x="0" y="0" dx="0em" dy="0.3em" style="text-anchor: end; visibility: hidden; font-family: Roboto, sans-serif; font-size: 12px; font-weight: 200;" fill="rgb(33, 33, 33)" stroke="none" stroke-width="1px">50</text></g><line x1="30" y1="0" x2="30" y2="177" fill="rgb(0, 0, 0)" stroke="rgb(204, 204, 204)" stroke-width="1px"></line></g></g><g transform="translate(30, 0)" clip-path="url(#clip_0)"><clipPath id="clip_0"><rect width="300" height="176"></rect></clipPath><g><g><g><line x1="0" y1="0" x2="0" y2="177" fill="rgb(0, 0, 0)" stroke="rgb(66, 66, 66)" stroke-width="1px" opacity="0.25"></line><line x1="21.428571428571427" y1="0" x2="21.428571428571427" y2="177" fill="rgb(0, 0, 0)" stroke="rgb(66, 66, 66)" stroke-width="1px" opacity="0.25"></line><line x1="42.857142857142854" y1="0" x2="42.857142857142854" y2="177" fill="rgb(0, 0, 0)" stroke="rgb(66, 66, 66)" stroke-width="1px" opacity="0.25"></line><line x1="64.28571428571428" y1="0" x2="64.28571428571428" y2="177" fill="rgb(0, 0, 0)" stroke="rgb(66, 66, 66)" stroke-width="1px" opacity="0.25"></line><line x1="85.71428571428571" y1="0" x2="85.71428571428571" y2="177" fill="rgb(0, 0, 0)" stroke="rgb(66, 66, 66)" stroke-width="1px" opacity="0.25"></line><line x1="107.14285714285714" y1="0" x2="107.14285714285714" y2="177" fill="rgb(0, 0, 0)" stroke="rgb(66, 66, 66)" stroke-width="1px" opacity="0.25"></line><line x1="128.57142857142856" y1="0" x2="128.57142857142856" y2="177" fill="rgb(0, 0, 0)" stroke="rgb(66, 66, 66)" stroke-width="1px" opacity="0.25"></line><line x1="150" y1="0" x2="150" y2="177" fill="rgb(0, 0, 0)" stroke="rgb(66, 66, 66)" stroke-width="1px" opacity="0.25"></line><line x1="171.42857142857142" y1="0" x2="171.42857142857142" y2="177" fill="rgb(0, 0, 0)" stroke="rgb(66, 66, 66)" stroke-width="1px" opacity="0.25"></line><line x1="192.85714285714286" y1="0" x2="192.85714285714286" y2="177" fill="rgb(0, 0, 0)" stroke="rgb(66, 66, 66)" stroke-width="1px" opacity="0.25"></line><line x1="214.28571428571428" y1="0" x2="214.28571428571428" y2="177" fill="rgb(0, 0, 0)" stroke="rgb(66, 66, 66)" stroke-width="1px" opacity="0.25"></line><line x1="235.71428571428572" y1="0" x2="235.71428571428572" y2="177" fill="rgb(0, 0, 0)" stroke="rgb(66, 66, 66)" stroke-width="1px" opacity="0.25"></line><line x1="257.1428571428571" y1="0" x2="257.1428571428571" y2="177" fill="rgb(0, 0, 0)" stroke="rgb(66, 66, 66)" stroke-width="1px" opacity="0.25"></line><line x1="278.57142857142856" y1="0" x2="278.57142857142856" y2="177" fill="rgb(0, 0, 0)" stroke="rgb(66, 66, 66)" stroke-width="1px" opacity="0.25"></line><line x1="300" y1="0" x2="300" y2="177" fill="rgb(0, 0, 0)" stroke="rgb(66, 66, 66)" stroke-width="1px" opacity="0.25"></line></g><g><line x1="0" y1="177" x2="300" y2="177" fill="rgb(0, 0, 0)" stroke="rgb(66, 66, 66)" stroke-width="1px" opacity="0.25"></line><line x1="0" y1="160.9090909090909" x2="300" y2="160.9090909090909" fill="rgb(0, 0, 0)" stroke="rgb(66, 66, 66)" stroke-width="1px" opacity="0.25"></line><line x1="0" y1="144.8181818181818" x2="300" y2="144.8181818181818" fill="rgb(0, 0, 0)" stroke="rgb(66, 66, 66)" stroke-width="1px" opacity="0.25"></line><line x1="0" y1="128.72727272727272" x2="300" y2="128.72727272727272" fill="rgb(0, 0, 0)" stroke="rgb(66, 66, 66)" stroke-width="1px" opacity="0.25"></line><line x1="0" y1="112.63636363636364" x2="300" y2="112.63636363636364" fill="rgb(0, 0, 0)" stroke="rgb(66, 66, 66)" stroke-width="1px" opacity="0.25"></line><line x1="0" y1="96.54545454545453" x2="300" y2="96.54545454545453" fill="rgb(0, 0, 0)" stroke="rgb(66, 66, 66)" stroke-width="1px" opacity="0.25"></line><line x1="0" y1="80.45454545454547" x2="300" y2="80.45454545454547" fill="rgb(0, 0, 0)" stroke="rgb(66, 66, 66)" stroke-width="1px" opacity="0.25"></line><line x1="0" y1="64.36363636363636" x2="300" y2="64.36363636363636" fill="rgb(0, 0, 0)" stroke="rgb(66, 66, 66)" stroke-width="1px" opacity="0.25"></line><line x1="0" y1="48.272727272727266" x2="300" y2="48.272727272727266" fill="rgb(0, 0, 0)" stroke="rgb(66, 66, 66)" stroke-width="1px" opacity="0.25"></line><line x1="0" y1="32.18181818181817" x2="300" y2="32.18181818181817" fill="rgb(0, 0, 0)" stroke="rgb(66, 66, 66)" stroke-width="1px" opacity="0.25"></line><line x1="0" y1="16.090909090909097" x2="300" y2="16.090909090909097" fill="rgb(0, 0, 0)" stroke="rgb(66, 66, 66)" stroke-width="1px" opacity="0.25"></line><line x1="0" y1="0" x2="300" y2="0" fill="rgb(0, 0, 0)" stroke="rgb(66, 66, 66)" stroke-width="1px" opacity="0.25"></line></g></g></g><g><g><line x1="0" y1="160.9090909090909" x2="300" y2="160.9090909090909" fill="rgb(0, 0, 0)" stroke="rgb(153, 153, 153)" stroke-width="1.5px"></line></g></g><g><g><line x1="21.428571428571427" y1="0" x2="21.428571428571427" y2="177" fill="rgb(0, 0, 0)" stroke="rgb(153, 153, 153)" stroke-width="1.5px"></line></g></g><g><g><g><g><g><path stroke="rgb(255, 112, 67)" stroke-width="2px" d="M21.428571428571427,159.78208978284488L21.857142857142858,159.77211072573584L22.285714285714285,159.74760949597302L22.714285714285715,159.6414293120219L23.142857142857142,159.616744475763L23.57142857142857,159.59171606614163L24,159.60247385368876L24.42857142857143,159.17215418791457L24.857142857142854,159.46375765727515L25.285714285714285,159.39468484383488L25.714285714285715,156.88835255162903L26.142857142857142,153.89989924330928L26.57142857142857,144.42675253724343L27,140.90071738444558L27.428571428571427,144.01045448679008L27.857142857142858,126.74403995385921L28.28571428571429,124.3509882256166L28.71428571428571,122.83870687637841L29.142857142857142,132.3551142606908L29.571428571428573,140.73647973615823L30,146.27331785723743L30.428571428571427,140.20879925580047L30.857142857142858,145.9860572201225L31.285714285714285,141.63557180289075L31.714285714285715,148.40778130621715L32.14285714285714,152.23160286248157L32.57142857142857,155.38321156867102L33,157.40723984841026L33.42857142857143,158.58476843019307L33.857142857142854,159.26550539423593L34.285714285714285,159.60073469709744L34.714285714285715,159.77631528723217L35.142857142857146,159.86175896087346L35.57142857142858,159.91398646351556L36,159.92262934317958L36.42857142857143,159.93881341963873L36.85714285714286,159.93725985002249L37.285714285714285,159.94291553182708L37.714285714285715,159.9474881732388L38.14285714285714,159.95352983679072L38.57142857142857,159.9367367878159L39,159.94676465893875L39.42857142857142,159.93305053532595L39.85714285714286,159.94503179518514L40.285714285714285,159.9355715370356L40.71428571428571,159.91638039219555L41.142857142857146,159.92248820968578L41.57142857142857,159.92382345399864L42.00000000000001,159.88539229136413L42.42857142857143,159.84377911005126L42.857142857142854,159.89930203861644L43.28571428571429,159.90638283936968L43.714285714285715,159.91727729518726L44.14285714285714,159.93698143444635L44.57142857142857,159.9314810219303L45,159.91929408278668L45.42857142857143,159.91779997704893L45.857142857142854,159.90546137429266L46.285714285714285,159.87720723141493L46.714285714285715,159.88906606110257L47.14285714285714,159.89019379627504L47.57142857142857,159.87726566959083L48,159.88262296902894L48.42857142857142,159.86693759854214L48.85714285714286,159.85910984292482L49.285714285714285,159.47329531581556L49.71428571428571,154.20985771425612L50.142857142857146,144.73166666145923L50.57142857142857,123.71285315002687L51.00000000000001,86.62939395044314L51.42857142857143,82.87240267561874L51.857142857142854,92.87199233644687L52.285714285714285,96.86566881093214L52.714285714285715,83.03766966233303L53.14285714285714,120.9871659312815L53.57142857142857,140.0076416165888L54,149.22570038583433L54.42857142857143,152.95678222069685L54.857142857142854,155.46651755119325L55.285714285714285,157.17821481773015L55.714285714285715,158.2072839136882L56.14285714285714,159.04381203718006L56.57142857142858,159.24408521996747L57,159.31355062781535L57.42857142857142,159.49679147234195L57.85714285714286,159.69786917497788L58.285714285714285,159.76226440608252L58.71428571428571,159.7911766962806L59.142857142857146,159.7202786347359L59.57142857142857,159.73794510690672L60,159.74021154991297L60.42857142857143,159.6931293575655L60.857142857142854,159.65764901155976L61.285714285714285,159.61238624126332L61.714285714285715,159.5023032698907L62.142857142857146,159.32168699482048L62.57142857142857,158.97031233764187L63,158.557401280177L63.42857142857143,157.8077040700747L63.857142857142854,156.86718136129514L64.28571428571428,154.3911210340662L64.71428571428572,148.21825241203095L65.14285714285714,142.9617234701089L65.57142857142857,137.47906186220382L66,144.7623356069699L66.42857142857143,143.29903449670616L66.85714285714286,149.6204716369236L67.28571428571429,145.6048309408257L67.71428571428571,149.54101017090332L68.14285714285714,148.28470389863406L68.57142857142857,151.16521530760772L69,155.3037291995948L69.42857142857143,157.24826259747314L69.85714285714285,158.33081793711222L70.28571428571429,158.6727753782029L70.71428571428571,158.85995634147568L71.14285714285715,158.2435506142175L71.57142857142857,157.26544578028665L72,153.65800576010238L72.42857142857143,149.80179648150906L72.85714285714286,141.1907616999856L73.28571428571428,139.32435990888982L73.71428571428572,125.53636794863283L74.14285714285714,114.8954244609213L74.57142857142857,88.79454833797699L75,85.25675946112042L75.42857142857143,66.4438540911581L75.85714285714285,64.1175487613751L76.28571428571428,94.51906585203446L76.71428571428572,103.10755107611122L77.14285714285714,106.08227008830582L77.57142857142857,96.06324244173467L78,87.83091535987435L78.42857142857143,77.62489173485446L78.85714285714285,60.693554068179544L79.28571428571429,43.718006834202896L79.71428571428572,51.159740941621266L80.14285714285714,61.84963077721508L80.57142857142857,62.43271207808305L81,47.99295970617076L81.42857142857142,39.10567487788548L81.85714285714286,71.573240197997L82.28571428571429,94.23866323617932L82.71428571428571,86.57783834810128L83.14285714285714,107.84034412739832L83.57142857142857,81.49159910019219L84.00000000000001,109.07405904561499L84.42857142857143,110.88714394963017L84.85714285714286,108.5570888316175L85.28571428571429,118.11131343824502L85.71428571428571,131.65869916929128L86.14285714285714,141.05798833149612L86.57142857142858,148.25320664381158L87,152.20371706491528L87.42857142857143,149.45688714655574L87.85714285714286,144.5598596483504L88.28571428571428,120.62025146120011L88.71428571428571,92.86223634158019L89.14285714285714,81.6386625986292L89.57142857142858,93.3740375101432L90,93.99112274202041L90.42857142857143,73.92728192799599L90.85714285714286,56.15162298683648L91.28571428571428,68.17120973668277L91.71428571428571,73.95144904982293L92.14285714285715,77.85998368979641L92.57142857142857,86.75126258140499L93,96.09178473090134L93.42857142857143,93.97893901628264L93.85714285714285,106.23943786152667L94.28571428571428,122.17973973631904L94.71428571428572,133.9683775614887L95.14285714285714,144.26093464660127L95.57142857142857,151.8398475300642L96,155.74327593189858L96.42857142857143,157.2631279603173L96.85714285714285,158.54818215534596L97.28571428571429,159.15099322402313L97.71428571428572,159.41839137264262L98.14285714285714,159.5907808290355L98.57142857142857,159.6289394329834L99,159.65452183794403L99.42857142857142,159.73441614664478L99.85714285714286,159.7164513256651L100.28571428571429,159.70023946098038L100.71428571428571,159.7624881937443L101.14285714285714,159.84976555902105L101.57142857142857,159.84595355913584L102.00000000000001,158.39700890586826L102.42857142857143,159.10712799468092L102.85714285714286,159.44897650178126L103.28571428571429,159.6428562378449L103.71428571428571,156.71260634246866L104.14285714285714,155.21328463003275L104.57142857142857,156.17030925920093L105,154.64414718330292L105.42857142857143,153.12713476194958L105.85714285714286,147.22550459944074L106.28571428571428,153.52362223341737L106.71428571428571,155.13585513018623L107.14285714285714,153.87875211475992L107.57142857142858,152.661151239366L108,148.252014604926L108.42857142857143,147.1402038031848L108.85714285714286,126.07166887008783L109.28571428571428,112.39741759785956L109.71428571428571,91.41484116385047L110.14285714285715,79.66131039050613L110.57142857142857,63.19069481285896L111,68.02460084397242L111.42857142857143,67.18600379667537L111.85714285714285,70.71110428607454L112.28571428571428,82.24443828899027L112.71428571428572,85.34357184526766L113.14285714285715,89.75196507143639L113.57142857142857,81.3592383650116L114,90.61222906988635L114.42857142857143,96.74516203650676L114.85714285714285,95.97271581591163L115.28571428571429,99.90656218783234L115.71428571428572,85.58123557795437L116.14285714285714,94.12372711020241L116.57142857142857,105.394497462306L117,118.75330776433819L117.42857142857142,125.0926167273362L117.85714285714286,131.88680210940592L118.28571428571429,136.63542075952367L118.71428571428572,134.45916694772475L119.14285714285714,136.07707333701742L119.57142857142857,142.04639617651776L120,145.97362581446737L120.42857142857143,149.3361703005061L120.85714285714286,150.30898722758144L121.28571428571429,151.9033645248893L121.71428571428571,151.58269200513354L122.14285714285714,151.154995900046L122.57142857142857,150.22197759788062L122.99999999999999,153.0578954566476L123.42857142857143,153.63616881335207L123.85714285714286,154.8087191626577L124.28571428571429,155.93925915547783L124.71428571428571,157.06928719609778L125.14285714285714,157.327773707153L125.57142857142858,152.37938931853407L126,150.59718088098157L126.42857142857143,148.79841982077153L126.85714285714286,139.14316386391988L127.28571428571428,129.16817171965576L127.71428571428571,131.62663003839168L128.14285714285714,127.5481504741321L128.57142857142856,132.81041369606046L129,133.66453476917397L129.42857142857144,135.0551328598465L129.85714285714286,124.681423979881L130.28571428571428,132.43471470854416L130.71428571428572,136.15816415849017L131.14285714285714,127.83773296771096L131.57142857142856,123.85801174348384L132,127.64836467213526L132.42857142857144,120.85967048927431L132.85714285714286,99.37950849645132L133.28571428571428,95.39153765035954L133.71428571428572,97.24945660104483L134.14285714285714,119.83506748916152L134.57142857142858,128.24507555500546L135,142.88346426707403L135.42857142857142,150.823783615434L135.85714285714286,155.05277659063853L136.28571428571428,157.3595891269799L136.71428571428572,157.8965819108717L137.14285714285714,158.6849881530551L137.57142857142858,159.3125989205338L138,159.54013603042895L138.42857142857142,159.67100217956053L138.85714285714286,159.5969963289478L139.28571428571428,159.70202017494165L139.7142857142857,159.58543884315992L140.14285714285714,159.74744621108178L140.57142857142858,159.85237248798992L141,159.86948346870415L141.42857142857142,159.90589039168506L141.85714285714286,159.87741383135528L142.2857142857143,159.8990830494455L142.71428571428572,159.44077515939657L143.14285714285714,159.49297773585457L143.57142857142858,159.35477106221836L144,153.35149474388282L144.42857142857142,150.5585168669179L144.85714285714286,148.2639320264145L145.28571428571428,148.48191330584993L145.71428571428572,146.5871686725451L146.14285714285714,144.56308952809383L146.57142857142856,118.19673086031845L147,127.27255733021985L147.42857142857144,124.81316517195955L147.85714285714286,107.00795716622572L148.28571428571428,114.75979986964862L148.71428571428572,71.5667287489887L149.14285714285714,74.58842374132236L149.57142857142856,50.6975721839281L150,78.2973557230405L150.42857142857144,95.06385861461212L150.85714285714286,108.67335442682858L151.2857142857143,114.69713453839333L151.7142857142857,136.04956577588226L152.14285714285714,146.7299910790485L152.57142857142856,150.87954216001987L153,154.21142610050708L153.42857142857144,154.8087270959223L153.85714285714286,155.67966239777934L154.28571428571428,156.80431358313785L154.7142857142857,154.60565544594866L155.14285714285714,153.50007438320088L155.57142857142858,150.40298555687227L156,147.28040783426763L156.42857142857144,138.24612917473968L156.85714285714286,140.43994913919803L157.28571428571428,144.62428343584222L157.7142857142857,146.74062889535455L158.14285714285714,145.75544575114793L158.57142857142858,150.8100324769032L159,154.91285401738963L159.42857142857144,157.19095114576672L159.85714285714283,157.9496515918855L160.28571428571428,158.83003179826758L160.71428571428572,159.17604223593565L161.14285714285714,159.3378710398502L161.57142857142858,158.71363270911058L162,158.86837004243773L162.42857142857144,155.4677537428636L162.85714285714283,155.9771393507217L163.28571428571428,155.5659993029029L163.71428571428572,157.09364623519912L164.14285714285714,156.01396168614528L164.57142857142858,152.5639935259531L165,155.87116347455395L165.42857142857142,155.30497624936618L165.85714285714286,154.80317034558325L166.28571428571428,157.19812817735053L166.71428571428572,155.157193705773L167.14285714285714,154.57984409170916L167.57142857142858,157.24405454007928L168.00000000000003,158.55267765434704L168.42857142857142,159.15211007953368L168.85714285714286,159.5154593220885L169.28571428571428,159.53683155901965L169.71428571428572,159.72223708542597L170.14285714285714,156.22871061502L170.57142857142858,154.76547604316377L170.99999999999997,155.0271445556005L171.42857142857142,156.58505670451004L171.85714285714286,157.9451708902785L172.28571428571428,146.03681672111998L172.71428571428572,152.3793564071221L173.14285714285717,155.83925623523058L173.57142857142858,157.79236207346688L174,158.7528659018661L174.42857142857142,159.2228204377864L174.85714285714286,159.49668824337556L175.28571428571428,159.70473041085407L175.71428571428572,159.7279198263738L176.14285714285717,154.69286227021965L176.57142857142856,157.05012498952243L177,158.37367586243963L177.42857142857142,153.54956711740684L177.85714285714286,147.50640668738342L178.28571428571428,153.66498125746915L178.71428571428572,156.78748112997533L179.14285714285717,158.26214169660815L179.57142857142856,159.04861101480313L180,159.30091794038134L180.42857142857142,159.4894112768372L180.85714285714286,159.4064433517434L181.2857142857143,159.29859912163062L181.71428571428572,159.06667500760167L182.14285714285714,159.22691417325413L182.57142857142856,144.77825596862706L183,139.2534381330572L183.42857142857142,138.24984788314106L183.85714285714286,128.29951298213905L184.2857142857143,129.2714646316281L184.71428571428572,133.02924526342832L185.14285714285714,135.7990965753834L185.57142857142856,146.25899875922428L186,143.99449255671726L186.42857142857144,150.11181472567813L186.85714285714286,154.33364499783787L187.2857142857143,155.8068788688154L187.7142857142857,157.44576232341743L188.14285714285714,158.34633168061941L188.57142857142856,158.9171419728205L189,159.24259922338496L189.42857142857144,159.5422527695917L189.85714285714286,159.62585280301028L190.28571428571428,159.69820664514674L190.7142857142857,159.67148017727536L191.14285714285714,159.71107411685696L191.57142857142858,159.74987194650862L192,159.71902226535838L192.42857142857144,159.62735031867564L192.85714285714286,159.60674892562776L193.28571428571428,159.36152344522458L193.7142857142857,159.0524062898303L194.14285714285714,158.7382526426472L194.57142857142858,158.11649696444812L195,157.45332981097116L195.42857142857144,157.7903413513345L195.85714285714283,158.60150784498623L196.28571428571428,158.77470751564826L196.71428571428572,158.90422121294912L197.14285714285714,158.88169247514975L197.57142857142858,158.9267121109357L198,158.91893847392575L198.42857142857144,158.41864266609045L198.85714285714283,158.4595508861434L199.28571428571428,158.40936842104313L199.71428571428572,158.39187159621457L200.14285714285714,157.81915284304182L200.57142857142858,157.62117595773304L201,156.72431545287907L201.42857142857142,155.77242462745426L201.85714285714283,155.6921024084787L202.28571428571428,152.05963652066944L202.71428571428572,145.17865003774816L203.14285714285714,145.40727974294236L203.57142857142858,146.4459250224755L204.00000000000003,147.66162797618517L204.42857142857142,145.4079844314175L204.85714285714286,141.87231841848507L205.28571428571428,141.05517832757852L205.71428571428572,56.22276077012611L206.14285714285714,90.58117859279247L206.57142857142858,26.056028781267614L206.99999999999997,75.87638925599718L207.42857142857142,105.32912667404553L207.85714285714286,107.29321071141646L208.28571428571428,120.42031606672607L208.71428571428572,128.68797753877723L209.14285714285714,126.78933782004367L209.57142857142858,101.49748113170764L210,86.7020513937477L210.42857142857142,89.10122440694057L210.85714285714286,71.79893730119545L211.28571428571428,77.41734943988853L211.71428571428572,52.80295585660048L212.14285714285717,48.031454033277946L212.57142857142856,19.99045542762493L213,54.338431564083855L213.42857142857142,65.85232474515296L213.85714285714286,62.33071506048513L214.28571428571428,62.72736413893338L214.71428571428572,68.23255169769115L215.14285714285717,84.24131291096231L215.57142857142856,89.84280783576166L216,108.94325812276914L216.42857142857142,117.41629200326402L216.85714285714286,131.68737745676748L217.2857142857143,112.09387730441222L217.71428571428572,78.52583193380816L218.14285714285714,114.06300750684879L218.57142857142856,121.32470875987012L219,129.68547919980398L219.42857142857142,143.79891453988705L219.85714285714286,151.4718724413063L220.2857142857143,155.53266804085462L220.71428571428572,157.64647312718174L221.14285714285714,158.4501677597597L221.57142857142856,159.08705242334815L222,155.57422108049855L222.42857142857144,157.53043125610225L222.85714285714286,158.3605985025962L223.2857142857143,158.75636431597107L223.7142857142857,158.53028965691468L224.14285714285714,157.77237218788002L224.57142857142856,158.33006748020617L225,157.36961992704556L225.42857142857144,153.54638205680112L225.85714285714286,150.77162879641446L226.2857142857143,147.4281430354148L226.7142857142857,151.71537498121995L227.14285714285714,137.51546092412215L227.57142857142856,132.47005026170376L228,112.7637003580798L228.42857142857144,125.0253656871136L228.85714285714286,139.79357373926678L229.28571428571428,142.16752495769953L229.7142857142857,149.60784004181025L230.14285714285714,152.08180513780675L230.57142857142858,151.64605790066847L231,154.32589931040448L231.42857142857144,157.03766520677166L231.85714285714286,157.93996483205817L232.28571428571428,158.63466031640795L232.7142857142857,158.84926507757848L233.14285714285714,158.72077255387316L233.57142857142858,158.78989248796123L234,158.67542531487814L234.42857142857144,158.76619406512492L234.85714285714283,158.64731831701658L235.28571428571428,158.29111212826317L235.71428571428572,156.8431008414161L236.14285714285714,155.69431504409567L236.57142857142858,155.4209708958916L237,155.76803290221216L237.42857142857144,156.67071315281558L237.85714285714283,157.4586432957997L238.28571428571428,157.30529539167327L238.71428571428572,150.99013076342422L239.14285714285714,152.87843000745465L239.57142857142858,147.248291157934L240,140.20950515760185L240.42857142857142,136.47819871211908L240.85714285714286,134.52639507875205L241.28571428571428,134.24777603002036L241.71428571428572,132.38096816492822L242.14285714285714,131.48273345745216L242.57142857142858,114.528084477933L243.00000000000003,126.87708791588936L243.42857142857142,101.87820539613956L243.85714285714286,88.5045014869918L244.28571428571428,86.68096620797368L244.71428571428572,91.13595317792634L245.14285714285714,105.69140724451437L245.57142857142858,119.61745908105816L245.99999999999997,119.57350678375003L246.42857142857142,131.8002663593566L246.85714285714286,126.10980899513993L247.28571428571428,134.36997969273258L247.71428571428572,124.61093956523648L248.14285714285717,126.21728472193459L248.57142857142858,122.59536361063851L249,113.16808275708306L249.42857142857142,123.58295714439231L249.85714285714286,130.67160136952188L250.28571428571428,130.58274892094283L250.71428571428572,130.41107582877828L251.14285714285717,104.3695381420873L251.57142857142856,121.09210181555721L252,117.75767163597362L252.42857142857142,119.51007321386854L252.85714285714286,107.84352722649254L253.28571428571428,120.77237955201575L253.71428571428572,121.84040465275828L254.14285714285717,119.114902251524L254.57142857142856,138.98755477694908L255,126.54042550735382L255.42857142857142,122.98945151073028L255.85714285714286,115.23486425081884L256.2857142857143,103.560621149735L256.7142857142857,105.20114596083607L257.1428571428571,87.00160262308785L257.57142857142856,108.63017238154171L258,133.4495551160685L258.42857142857144,144.78236104700395L258.8571428571429,149.75549723069497L259.2857142857143,140.63730705056824L259.7142857142857,141.59256958054883L260.1428571428571,150.02525597442715L260.57142857142856,149.79164940773788L261,152.02856672908695L261.42857142857144,155.1830385554733L261.8571428571429,157.4449532843329L262.2857142857143,158.57040896444173L262.7142857142857,158.88641341527486L263.1428571428571,159.31055522991943L263.57142857142856,159.60774465976309L264,159.73199834922048L264.42857142857144,159.84067926488913L264.8571428571429,159.89415059820067L265.2857142857143,159.9045937290936L265.7142857142857,159.91554578242886L266.1428571428571,159.91535652884085L266.57142857142856,159.92553031591112L267,159.93517083388778L267.42857142857144,159.94671931815665L267.8571428571429,159.92473281592626L268.2857142857143,159.8727508570266L268.7142857142857,159.8872047166257L269.14285714285717,159.91627250726697L269.57142857142856,159.9240197187268L270,159.87420519580542L270.42857142857144,159.798620633101L270.85714285714283,159.76644864625422L271.2857142857143,159.15291222296042L271.7142857142857,152.48559832610005L272.14285714285717,146.95864187659924L272.57142857142856,140.66446075392994L273,146.67552420989796L273.42857142857144,151.35691332576346L273.85714285714283,144.5161704421048" style="fill: none;" fill="none"></path></g></g></g></g><g opacity="0.2"><g><g><g><path stroke="rgb(255, 112, 67)" stroke-width="2px" d="M21.428571428571427,159.78208978284488L21.857142857142858,159.76717109246687L22.285714285714285,159.7294779734178L22.714285714285715,159.549975005605L23.142857142857142,159.59400111111728L23.57142857142857,159.56791234504095L24,159.612863495675L24.42857142857143,158.75342713919554L24.857142857142854,159.7485565375198L25.285714285714285,159.32710060910745L25.714285714285715,154.43382032567806L26.142857142857142,150.9719038399783L26.57142857142857,135.14320231350985L27,137.4448749368841L27.428571428571427,147.05845101096415L27.857142857142858,109.81997883536599L28.28571428571429,122.0053541356867L28.71428571428571,121.35638122558593L29.142857142857142,141.68304823962126L29.571428571428573,148.9518646326932L30,151.70051138617777L30.428571428571427,134.2643724268133L30.857142857142858,151.64891295433046L31.285714285714285,137.37123501517556L31.714285714285715,155.04588734019887L32.14285714285714,155.9797050931237L32.57142857142857,158.4724121462215L33,159.39118834896522L33.42857142857143,159.73897961107167L33.857142857142854,159.93276241746815L34.285714285714285,159.9293257957155L34.714285714285715,159.9484190339392L35.142857142857146,159.9455106805671L35.57142857142858,159.96517975818028L36,159.93110107671131L36.42857142857143,159.954677019336L36.85714285714286,159.93573704416102L37.285714285714285,159.94845921993254L37.714285714285715,159.95197026729585L38.14285714285714,159.9594518634406L38.57142857142857,159.92027627446436L39,159.95659395835617L39.42857142857142,159.91960797851735L39.85714285714286,159.9567758023739L40.285714285714285,159.9262986107306L40.71428571428571,159.8975692700256L41.142857142857146,159.92847508029504L41.57142857142857,159.92513225783L42.00000000000001,159.84772214185108L42.42857142857143,159.80298995213076L42.857142857142854,159.95372550324961L43.28571428571429,159.91332342624665L43.714285714285715,159.92795601920648L44.14285714285714,159.95629539273003L44.57142857142857,159.92608952847394L45,159.90734846917067L45.42857142857143,159.9163354575634L45.857142857142854,159.89336710030383L46.285714285714285,159.84951257651502L46.714285714285715,159.90069006247953L47.14285714285714,159.89129920005797L47.57142857142857,159.86459354541518L48,159.88787418332967L48.42857142857142,159.85156282945113L48.85714285714286,159.85143709236925L49.285714285714285,159.09512068033217L49.71428571428571,149.0506465998563L50.142857142857146,135.44116256020288L50.57142857142857,103.11025376753375L51.00000000000001,50.280260675603685L51.42857142857143,79.18980726762251L51.857142857142854,102.67357032082296L52.285714285714285,100.78026258295233L52.714285714285715,69.48349227905273L53.14285714285714,158.18518702658739L53.57142857142857,158.65147421901875L54,158.26122333786705L54.42857142857143,156.61398124694824L54.857142857142854,157.92655515237288L55.285714285714285,158.85601708889007L55.714285714285715,159.2159754037857L56.14285714285714,159.86377524733544L56.57142857142858,159.44039259715512L57,159.38164048303258L57.42857142857142,159.67640378529376L57.85714285714286,159.89496514092792L58.285714285714285,159.82538448409602L58.71428571428571,159.81951646588067L59.142857142857146,159.65078449520198L59.57142857142857,159.75526174794544L60,159.74243311285971L60.42857142857143,159.6469794858586L60.857142857142854,159.622871246663L61.285714285714285,159.56801976344804L61.714285714285715,159.3944001593373L62.142857142857146,159.14464727965267L62.57142857142857,158.62589559446684L63,158.15266667929563L63.42857142857143,157.0728523492813L63.857142857142854,155.94528286457063L64.28571428571428,151.96409160440618L64.71428571428572,142.16761881221424L65.14285714285714,137.80928421020508L65.57142857142857,132.10496781089088L66,151.90138610926542L66.42857142857143,141.86470964605158L66.85714285714286,155.81673180406744L67.28571428571429,141.6687078822743L67.71428571428571,153.39924525781112L68.14285714285714,147.05327497829091L68.57142857142857,153.98868688670072L69,159.36029232144355L69.42857142857143,159.15429038351232L69.85714285714285,159.39193653735248L70.28571428571429,159.0079613848166L70.71428571428571,159.04343075102025L71.14285714285715,157.63935094096445L71.57142857142857,156.3067093589089L72,150.12200019576332L72.42857142857143,146.02194778268986L72.85714285714286,132.7502424586903L73.28571428571428,137.49491656910288L73.71428571428572,112.02140553214335L74.14285714285714,104.46519272544167L74.57142857142857,63.2105212471702L75,81.78902580954812L75.42857142857143,48.003481500799L75.85714285714285,61.83730888366699L76.28571428571428,124.31857270327481L76.71428571428572,111.52596728584982L77.14285714285714,108.99808377352628L77.57142857142857,86.24261138222434L78,79.76160465587269L78.42857142857143,67.6209675875577L78.85714285714285,44.09749041470614L79.28571428571429,27.07860905040394L79.71428571428572,58.45411397760565L80.14285714285714,72.32783962596545L80.57142857142857,63.004247214577425L81,33.839143024791376L81.42857142857142,30.394375887784097L81.85714285714286,103.39788343256171L82.28571428571429,116.45526601617988L82.71428571428571,79.06871296275744L83.14285714285714,128.68181018829347L83.57142857142857,55.664611400257456L84.00000000000001,136.11033166538584L84.42857142857143,112.66432618227871L84.85714285714286,106.27317341891201L85.28571428571429,127.47634547840465L85.71428571428571,144.93781983635643L86.14285714285714,150.2711529558355L86.57142857142858,155.30594538558614L87,156.07599955688823L87.42857142857143,146.76444989984685L87.85714285714286,139.75980299169368L88.28571428571428,97.15469492132013L88.71428571428571,65.65388488769531L89.14285714285714,70.63733784068715L89.57142857142858,104.87702876004306L90,94.59598846435547L90.42857142857143,54.260744892467144L90.85714285714286,38.72795729203657L91.28571428571428,79.95278486772017L91.71428571428571,79.61722817854448L92.14285714285715,81.69112160422586L92.57142857142857,95.46647654446687L93,105.24734604575417L93.42857142857143,91.90793183066627L93.85714285714285,118.25715455141933L94.28571428571428,137.8043920690363L94.71428571428572,145.52357701388271L95.14285714285714,154.34967872012743L95.57142857142857,159.26868293068625L96,159.56940872181545L96.42857142857143,158.75288390896537L96.85714285714285,159.8077897326513L97.28571428571429,159.74186743985524L97.71428571428572,159.68049450841818L98.14285714285714,159.75975663282654L98.57142857142857,159.66634242101148L99,159.67959766062822L99.42857142857142,159.81272838982667L99.85714285714286,159.69884224371478L100.28571428571429,159.6843486233191L100.71428571428571,159.8235042783347L101.14285714285714,159.93531465963883L101.57142857142857,159.84221704439685L102.00000000000001,156.97675622593272L102.42857142857143,159.80318531935865L102.85714285714286,159.7840557315133L103.28571428571429,159.83289677121422L103.71428571428571,153.8403811974959L104.14285714285714,153.74365245645697L104.57142857142857,157.10838290561327L105,153.14820613861085L105.42857142857143,151.64016219052402L105.85714285714286,141.440738400546L106.28571428571428,159.69702466672118L106.71428571428571,156.71616262305866L107.14285714285714,152.64654222835193L107.57142857142858,151.46766127239573L108,143.93018760681153L108.42857142857143,146.0504090569236L108.85714285714286,105.42033264853738L109.28571428571428,98.99394357854669L109.71428571428571,70.84776129289106L110.14285714285715,68.14052280079234L110.57142857142857,47.04623003872958L111,72.76278596357865L111.42857142857143,66.36401263150302L111.85714285714285,74.16640080538664L112.28571428571428,93.5493894403631L112.71428571428572,88.3813364202326L113.14285714285715,94.07306338223545L113.57142857142857,73.13270426663486L114,99.68199223605069L114.42857142857143,102.75665078596636L114.85714285714285,95.21556556008079L115.28571428571429,103.76251061179423L115.71428571428572,71.53957880193538L116.14285714285714,102.49706039428712L116.57142857142857,116.44208424308083L117,131.84758716930043L117.42857142857142,131.30639481977983L117.85714285714286,138.54644916707818L118.28571428571429,141.29000735716386L118.71428571428572,132.326007270813L119.14285714285714,137.66294197602704L119.57142857142857,147.89751460335472L120,149.8230885288932L120.42857142857143,152.63212974721736L120.85714285714286,151.26254045313055L121.28571428571429,153.46616999452763L121.71428571428571,151.26836943626404L122.14285714285714,150.73576902476225L122.57142857142857,149.30743490565908L122.99999999999999,155.83765652613206L123.42857142857143,154.20299121249803L123.85714285714286,155.95805069316515L124.28571428571429,157.04741221774708L124.71428571428571,158.17693844383413L125.14285714285714,157.58114167343487L125.57142857142858,147.52899273959073L126,148.85026369961824L126.42857142857143,147.03527779145674L126.85714285714286,129.6791010943326L127.28571428571428,119.3907041723078L127.71428571428571,134.03640601418238L128.14285714285714,123.55043288144198L128.57142857142856,137.96847368587146L129,134.50174255371093L129.42857142857144,136.4181943546642L129.85714285714286,114.51313507773659L130.28571428571428,140.03447492772884L130.71428571428572,139.80788193616L131.14285714285714,119.68206279061056L131.57142857142856,119.9570968801325L132,131.36366110715L132.42857142857144,114.20540589419278L132.85714285714286,78.32469624606045L133.28571428571428,91.48253652399237L133.71428571428572,99.07058507745916L134.14285714285714,141.97343855771152L134.57142857142858,136.48854880766436L135,157.2319838957353L135.42857142857142,158.60686891729182L135.85714285714286,159.1980271306905L136.28571428571428,159.6207222071561L136.71428571428572,158.4229411742904L137.14285714285714,159.45778239044276L137.57142857142858,159.92778175202284L138,159.76316745497962L138.42857142857142,159.79927691979842L138.85714285714286,159.5244559407234L139.28571428571428,159.80496434081684L139.7142857142857,159.47116605260155L140.14285714285714,159.9062455123121L140.57142857142858,159.9552210168405L141,159.88625561811708L141.42857142857142,159.94157638549805L141.85714285714286,159.84950116330927L142.2857142857143,159.92032317410815L142.71428571428572,158.99154267311096L143.14285714285714,159.54414659792727L143.57142857142858,159.21930115439676L144,147.46709518432618L144.42857142857142,147.82084548256614L144.85714285714286,146.01478450948542L145.28571428571428,148.6955781243064L145.71428571428572,144.72994373494927L146.14285714285714,142.5790911587802L146.57142857142856,92.35247830477628L147,136.16866446408358L147.42857142857144,122.4024738485163L147.85714285714286,89.55532753684304L148.28571428571428,122.35814073736017L148.71428571428572,29.22896596735174L149.14285714285714,77.55028318925338L149.57142857142856,27.27980679598721L150,105.35060889504173L150.42857142857144,111.4983515479348L150.85714285714286,122.0133552724665L151.2857142857143,120.60163187547164L151.7142857142857,156.97917659282683L152.14285714285714,157.19892281185497L152.57142857142856,154.94692391265522L153,157.47733214118264L153.42857142857144,155.39420034885407L153.85714285714286,156.5333514560353L154.28571428571428,157.90669444799423L154.7142857142857,152.4505350936543L155.14285714285714,152.41638601476495L155.57142857142858,147.3672252221541L156,144.2196633338928L156.42857142857144,129.3907471223311L156.85714285714286,142.59032712416214L157.28571428571428,148.72575962760232L157.7142857142857,148.81506652398542L158.14285714285714,144.78977118405427L158.57142857142858,155.76452837640588L159,158.93443156697532L159.42857142857144,159.42393743991852L159.85714285714283,158.69332826679403L160.28571428571428,159.69297873323615L160.71428571428572,159.5152009817687L161.14285714285714,159.49649531299417L161.57142857142858,158.10175553343512L162,159.02004327015445L162.42857142857144,152.13447637991473L162.85714285714283,156.47643811485983L163.28571428571428,155.1630006421696L163.71428571428572,158.59104273319244L164.14285714285714,154.95565702915192L164.57142857142858,149.1823415669528L165,159.11284490932115L165.42857142857142,154.75000065239993L165.85714285714286,154.31130119237034L166.28571428571428,159.54566110155798L166.71428571428572,153.15667377818716L167.14285714285714,154.0139271432703L167.57142857142858,159.8555083459074L168.00000000000003,159.8353874396194L168.42857142857142,159.7396725557067L168.85714285714286,159.87161353013732L169.28571428571428,159.5577805833383L169.71428571428572,159.9039712152698L170.14285714285714,152.80436288660223L170.57142857142858,153.33121641332454L170.99999999999997,155.28363151333548L171.42857142857142,158.11211910789663L171.85714285714286,159.27835212187333L172.28571428571428,134.36427154541016L172.71428571428572,158.59630124785684L173.14285714285717,159.2306431954557L173.57142857142858,159.70679254856978L174,159.69434985247526L174.42857142857142,159.68346894329244L174.85714285714286,159.76513292410158L175.28571428571428,159.9086529314518L175.71428571428572,159.75065004554662L176.14285714285717,149.75750882408835L176.57142857142856,159.3607092391361L177,159.67101780718022L177.42857142857142,148.82098527821628L177.85714285714286,141.5829128005288L178.28571428571428,159.70160385587L178.71428571428572,159.84814932183787L179.14285714285717,159.70760106390173L179.57142857142856,159.81950668313286L180,159.5482286892154L180.42857142857142,159.6741720719771L180.85714285714286,159.32511835585942L181.2857142857143,159.192890420827L181.71428571428572,158.83934345028618L182.14285714285714,159.38398028612136L182.57142857142856,130.615709807656L183,133.8380226308649L183.42857142857142,137.2661307074807L183.85714285714286,118.54621441581034L184.2857142857143,130.2241697138006L184.71428571428572,136.71261439756913L185.14285714285714,138.5140993465077L185.57142857142856,156.51177416714754L186,141.7748280611905L186.42857142857144,156.10800180218436L186.85714285714286,158.47187467054889L187.2857142857143,157.25093979185277L187.7142857142857,159.05219264030455L188.14285714285714,159.22906798124313L188.57142857142856,159.47664909091864L189,159.56161177591844L189.42857142857144,159.83597258221022L189.85714285714286,159.70779739022254L190.28571428571428,159.76912773793393L190.7142857142857,159.64528294639155L191.14285714285714,159.74988401803103L191.57142857142858,159.7879015023058L192,159.6887834689834L192.42857142857144,159.53749365806578L192.85714285714286,159.58655548095703L193.28571428571428,159.12115391492844L193.7142857142857,158.749410266226L194.14285714285714,158.43031985976478L194.57142857142858,157.50705327987671L195,156.8032946803353L195.42857142857144,158.12067939584907L195.85714285714283,159.39661163579336L196.28571428571428,158.94447748986158L196.71428571428572,159.03117028258063L197.14285714285714,158.85960985097017L197.57142857142858,158.9708402687853L198,158.91131877032194L198.42857142857144,157.92825370593505L198.85714285714283,158.49964904243296L199.28571428571428,158.36017966812307L199.71428571428572,158.37472124316474L200.14285714285714,157.25777505527844L200.57142857142858,157.42711940678683L201,155.8452145619826L201.42857142857142,154.83938312530518L201.85714285714283,155.61337072849273L202.28571428571428,148.49910065044054L202.71428571428572,138.4339207129045L203.14285714285714,145.63138212724166L203.57142857142858,147.46400306875054L204.00000000000003,148.8532576040788L204.42857142857142,143.19896749149672L204.85714285714286,138.40666559392756L205.28571428571428,140.25421922857112L205.71428571428572,-26.929806934703468L206.14285714285714,124.25923170609907L206.57142857142858,-37.19139529141511L206.99999999999997,124.71020793914795L207.42857142857142,134.19864156896418L207.85714285714286,109.21840199557217L208.28571428571428,133.2874787417325L208.71428571428572,136.79192294207488L209.14285714285714,124.92829492742365L209.57142857142858,76.7064532886852L210,72.19960046248002L210.42857142857142,91.45288904363458L210.85714285714286,54.839269742098715L211.28571428571428,82.9245058926669L211.71428571428572,28.675976007634944L212.14285714285717,43.35443739457563L212.57142857142856,-7.495275878906242L213,88.00624975724654L213.42857142857142,77.13822004144842L213.85714285714286,58.87884022105823L214.28571428571428,63.11615878018466L214.71428571428572,73.628725641424L215.14285714285717,99.93306895169344L215.57142857142856,95.33338206898082L216,127.66548167142L216.42857142857142,125.72154303464022L216.85714285714286,145.6758671587164L217.2857142857143,92.8883672540838L217.71428571428572,45.62250033291903L218.14285714285714,148.8964766328985L218.57142857142856,128.44261394847524L219,137.88068982904608L219.42857142857142,157.63287591283972L219.85714285714286,158.9928905823014L220.2857142857143,159.51305184635248L220.71428571428572,159.71842068704692L221.14285714285714,159.23794764713807L221.57142857142856,159.7113255094398L222,152.13095075433904L222.42857142857144,159.44790459654547L222.85714285714286,159.17432679371402L223.2857142857143,159.14429318254645L223.7142857142857,158.30869172378019L224.14285714285714,157.02946298555895L224.57142857142856,158.87671930139715L225,156.42819113731383L225.42857142857144,149.7988518671556L225.85714285714286,148.05182114514437L226.2857142857143,144.15086491324686L226.7142857142857,155.91771124492993L227.14285714285714,123.59673328399658L227.57142857142856,127.52454872131348L228,93.44757520502264L228.42857142857144,137.04422576210715L228.85714285714286,154.26934202801098L229.28571428571428,144.49446724111382L229.7142857142857,156.90082215395842L230.14285714285714,154.50678082596173L230.57142857142858,151.21893932169135L231,156.95267455361108L231.42857142857144,159.6957327685573L231.85714285714286,158.82439713803205L232.28571428571428,159.31559945453296L232.7142857142857,159.0596202395179L233.14285714285714,158.59482443657788L233.57142857142858,158.85764371048322L234,158.56322481848977L234.42857142857144,158.8551654143767L234.85714285714283,158.53079654411837L235.28571428571428,157.94195952740583L235.71428571428572,155.42376304539766L236.14285714285714,154.56827748038552L236.57142857142858,155.15303950309755L237,156.10822239355608L237.42857142857144,157.5555185469714L237.85714285714283,158.23097086169503L238.28571428571428,157.15498407970776L238.71428571428572,144.800018900091L239.14285714285714,154.72933718724684L239.57142857142858,141.72964020642368L240,133.31010105826635L240.42857142857142,132.82077952298252L240.85714285714286,132.61324102228338L241.28571428571428,133.97467419017443L241.71428571428572,130.55112679221415L242.14285714285714,130.6022855758667L242.57142857142858,97.9091711217707L243.00000000000003,138.98155663230202L243.42857142857142,77.37435025301846L243.85714285714286,75.39562339782715L244.28571428571428,84.89354053844106L244.71428571428572,95.50272258411754L245.14285714285714,119.95863449790261L245.57142857142858,133.26774751489813L245.99999999999997,119.53042482896285L246.42857142857142,143.78491188396106L246.85714285714286,120.53203395496716L247.28571428571428,142.46658265373924L247.71428571428572,115.04514775709673L248.14285714285717,127.79182106364857L248.57142857142858,119.0451637094671L249,103.92748073231091L249.42857142857142,133.79159639531915L249.85714285714286,137.61987640207465L250.28571428571428,130.49565592679113L250.71428571428572,130.2428022037853L251.14285714285717,78.84367446899414L251.57142857142856,137.48352561430497L252,114.48926977677777L252.42857142857142,121.22777377041902L252.85714285714286,96.40800195173783L253.28571428571428,133.44521499980578L253.71428571428572,122.8872807416049L254.14285714285717,116.4433701948686L254.57142857142856,158.4666894305836L255,114.33977404507725L255.42857142857142,119.50879383087158L255.85714285714286,107.63383317427201L256.2857142857143,92.11755117936568L256.7142857142857,106.80918513211336L257.1428571428571,69.16244628212668L257.57142857142856,129.8304536299272L258,157.7774649251591L258.42857142857144,155.890754979307L258.8571428571429,154.63015547015448L259.2857142857143,131.69967509183016L259.7142857142857,142.52891602082687L260.1428571428571,158.29095847931777L260.57142857142856,149.56266871365634L261,154.22118865793402L261.42857142857144,158.27504559321838L261.8571428571429,159.66207762252202L262.2857142857143,159.6735783934593L262.7142857142857,159.19616035223007L263.1428571428571,159.72629819674924L263.57142857142856,159.8990491504019L264,159.85379156957976L264.42857142857144,159.9472080832178L264.8571428571429,159.94656309322878L265.2857142857143,159.9148300653154L265.7142857142857,159.92628096342088L266.1428571428571,159.91517102284865L266.57142857142856,159.93550264185126L267,159.94462045051836L267.42857142857144,159.95803911956872L267.8571428571429,159.90318168997766L268.2857142857143,159.82179824384775L268.7142857142857,159.90137236118318L269.14285714285717,159.9447646980936L269.57142857142856,159.93161352005873L270,159.82537709908053L270.42857142857144,159.72453279441052L270.85714285714283,159.7349137284539L271.2857142857143,158.55152503577145L271.7142857142857,145.95031044699928L272.14285714285717,141.5411301092668L272.57142857142856,134.49491688121446L273,152.56755670634183L273.42857142857144,155.94560166705736L273.85714285714283,137.81088781356812" style="fill: none;" fill="none"></path></g></g></g></g></g></g><g transform="translate(30, 177)" clip-path="url(#clip_1)"><clipPath id="clip_1"><rect width="300" height="22"></rect></clipPath><g><g><line x1="0" y1="0" x2="0" y2="5" style="visibility: inherit;" fill="rgb(0, 0, 0)" stroke="rgb(204, 204, 204)" stroke-width="1px"></line><line x1="21.428571428571427" y1="0" x2="21.428571428571427" y2="5" style="visibility: inherit;" fill="rgb(0, 0, 0)" stroke="rgb(204, 204, 204)" stroke-width="1px"></line><line x1="42.857142857142854" y1="0" x2="42.857142857142854" y2="5" style="visibility: inherit;" fill="rgb(0, 0, 0)" stroke="rgb(204, 204, 204)" stroke-width="1px"></line><line x1="64.28571428571428" y1="0" x2="64.28571428571428" y2="5" style="visibility: inherit;" fill="rgb(0, 0, 0)" stroke="rgb(204, 204, 204)" stroke-width="1px"></line><line x1="85.71428571428571" y1="0" x2="85.71428571428571" y2="5" style="visibility: inherit;" fill="rgb(0, 0, 0)" stroke="rgb(204, 204, 204)" stroke-width="1px"></line><line x1="107.14285714285714" y1="0" x2="107.14285714285714" y2="5" style="visibility: inherit;" fill="rgb(0, 0, 0)" stroke="rgb(204, 204, 204)" stroke-width="1px"></line><line x1="128.57142857142856" y1="0" x2="128.57142857142856" y2="5" style="visibility: inherit;" fill="rgb(0, 0, 0)" stroke="rgb(204, 204, 204)" stroke-width="1px"></line><line x1="150" y1="0" x2="150" y2="5" style="visibility: inherit;" fill="rgb(0, 0, 0)" stroke="rgb(204, 204, 204)" stroke-width="1px"></line><line x1="171.42857142857142" y1="0" x2="171.42857142857142" y2="5" style="visibility: inherit;" fill="rgb(0, 0, 0)" stroke="rgb(204, 204, 204)" stroke-width="1px"></line><line x1="192.85714285714286" y1="0" x2="192.85714285714286" y2="5" style="visibility: inherit;" fill="rgb(0, 0, 0)" stroke="rgb(204, 204, 204)" stroke-width="1px"></line><line x1="214.28571428571428" y1="0" x2="214.28571428571428" y2="5" style="visibility: inherit;" fill="rgb(0, 0, 0)" stroke="rgb(204, 204, 204)" stroke-width="1px"></line><line x1="235.71428571428572" y1="0" x2="235.71428571428572" y2="5" style="visibility: inherit;" fill="rgb(0, 0, 0)" stroke="rgb(204, 204, 204)" stroke-width="1px"></line><line x1="257.1428571428571" y1="0" x2="257.1428571428571" y2="5" style="visibility: inherit;" fill="rgb(0, 0, 0)" stroke="rgb(204, 204, 204)" stroke-width="1px"></line><line x1="278.57142857142856" y1="0" x2="278.57142857142856" y2="5" style="visibility: inherit;" fill="rgb(0, 0, 0)" stroke="rgb(204, 204, 204)" stroke-width="1px"></line><line x1="300" y1="0" x2="300" y2="5" style="visibility: inherit;" fill="rgb(0, 0, 0)" stroke="rgb(204, 204, 204)" stroke-width="1px"></line></g><g transform="translate(0, 8)"><text x="0" y="0" dx="0em" dy="0.95em" style="text-anchor: middle; visibility: hidden; font-family: Roboto, sans-serif; font-size: 12px; font-weight: 200;" fill="rgb(33, 33, 33)" stroke="none" stroke-width="1px">-50</text><text x="21.428571428571427" y="0" dx="0em" dy="0.95em" style="text-anchor: middle; visibility: inherit; font-family: Roboto, sans-serif; font-size: 12px; font-weight: 200;" fill="rgb(33, 33, 33)" stroke="none" stroke-width="1px">0</text><text x="42.857142857142854" y="0" dx="0em" dy="0.95em" style="text-anchor: middle; visibility: hidden; font-family: Roboto, sans-serif; font-size: 12px; font-weight: 200;" fill="rgb(33, 33, 33)" stroke="none" stroke-width="1px">50</text><text x="64.28571428571428" y="0" dx="0em" dy="0.95em" style="text-anchor: middle; visibility: inherit; font-family: Roboto, sans-serif; font-size: 12px; font-weight: 200;" fill="rgb(33, 33, 33)" stroke="none" stroke-width="1px">100</text><text x="85.71428571428571" y="0" dx="0em" dy="0.95em" style="text-anchor: middle; visibility: hidden; font-family: Roboto, sans-serif; font-size: 12px; font-weight: 200;" fill="rgb(33, 33, 33)" stroke="none" stroke-width="1px">150</text><text x="107.14285714285714" y="0" dx="0em" dy="0.95em" style="text-anchor: middle; visibility: inherit; font-family: Roboto, sans-serif; font-size: 12px; font-weight: 200;" fill="rgb(33, 33, 33)" stroke="none" stroke-width="1px">200</text><text x="128.57142857142856" y="0" dx="0em" dy="0.95em" style="text-anchor: middle; visibility: hidden; font-family: Roboto, sans-serif; font-size: 12px; font-weight: 200;" fill="rgb(33, 33, 33)" stroke="none" stroke-width="1px">250</text><text x="150" y="0" dx="0em" dy="0.95em" style="text-anchor: middle; visibility: inherit; font-family: Roboto, sans-serif; font-size: 12px; font-weight: 200;" fill="rgb(33, 33, 33)" stroke="none" stroke-width="1px">300</text><text x="171.42857142857142" y="0" dx="0em" dy="0.95em" style="text-anchor: middle; visibility: hidden; font-family: Roboto, sans-serif; font-size: 12px; font-weight: 200;" fill="rgb(33, 33, 33)" stroke="none" stroke-width="1px">350</text><text x="192.85714285714286" y="0" dx="0em" dy="0.95em" style="text-anchor: middle; visibility: inherit; font-family: Roboto, sans-serif; font-size: 12px; font-weight: 200;" fill="rgb(33, 33, 33)" stroke="none" stroke-width="1px">400</text><text x="214.28571428571428" y="0" dx="0em" dy="0.95em" style="text-anchor: middle; visibility: hidden; font-family: Roboto, sans-serif; font-size: 12px; font-weight: 200;" fill="rgb(33, 33, 33)" stroke="none" stroke-width="1px">450</text><text x="235.71428571428572" y="0" dx="0em" dy="0.95em" style="text-anchor: middle; visibility: inherit; font-family: Roboto, sans-serif; font-size: 12px; font-weight: 200;" fill="rgb(33, 33, 33)" stroke="none" stroke-width="1px">500</text><text x="257.1428571428571" y="0" dx="0em" dy="0.95em" style="text-anchor: middle; visibility: hidden; font-family: Roboto, sans-serif; font-size: 12px; font-weight: 200;" fill="rgb(33, 33, 33)" stroke="none" stroke-width="1px">550</text><text x="278.57142857142856" y="0" dx="0em" dy="0.95em" style="text-anchor: middle; visibility: inherit; font-family: Roboto, sans-serif; font-size: 12px; font-weight: 200;" fill="rgb(33, 33, 33)" stroke="none" stroke-width="1px">600</text><text x="300" y="0" dx="0em" dy="0.95em" style="text-anchor: middle; visibility: hidden; font-family: Roboto, sans-serif; font-size: 12px; font-weight: 200;" fill="rgb(33, 33, 33)" stroke="none" stroke-width="1px">650</text></g><line x1="0" y1="0" x2="300" y2="0" fill="rgb(0, 0, 0)" stroke="rgb(204, 204, 204)" stroke-width="1px"></line></g></g></g></g></svg>